<svg width="630" height="596" viewBox="0 0 630 596" fill="none" xmlns="http://www.w3.org/2000/svg">
<path d="M629.686 297.539C629.686 461.865 488.726 595.077 314.843 595.077C140.96 595.077 0 461.865 0 297.539C0 133.213 140.96 0 314.843 0C488.726 0 629.686 133.213 629.686 297.539Z" fill="#FFD291" fill-opacity="0.9"/>
<path d="M185.134 69.2022C184.956 69.2853 184.671 69.4344 184.277 69.6496C183.883 69.8648 183.476 70.086 183.057 70.3131C182.638 70.5401 182.231 70.7613 181.837 70.9765C181.443 71.1917 181.157 71.3408 180.98 71.4239L180.833 71.3073L180.27 69.8083L180.389 69.5672C180.694 69.4248 181.043 69.246 181.437 69.0308C181.819 68.7902 182.088 68.5404 182.245 68.2815C182.377 68.0344 182.455 67.7044 182.478 67.2917C182.501 66.8789 182.397 66.325 182.164 65.6301C182.012 65.2378 181.757 64.6612 181.401 63.9003C181.071 63.1276 180.555 61.9931 179.855 60.4968L176.118 52.5079C175.88 52.0007 175.613 51.43 175.317 50.796C175.008 50.1366 174.68 49.5017 174.333 48.8914C173.962 48.2304 173.604 47.7952 173.258 47.5858C172.938 47.3645 172.641 47.2252 172.367 47.168C172.044 47.0719 171.75 47.0705 171.484 47.1638C171.244 47.2452 170.807 47.4342 170.173 47.7309L169.912 47.6677L169.121 46.2755L169.126 46.0877C169.304 46.0046 169.538 45.9105 169.829 45.8054C170.145 45.6883 170.461 45.5713 170.777 45.4543C171.119 45.3254 171.46 45.1965 171.802 45.0676C172.144 44.9387 172.454 44.809 172.733 44.6785L175.624 43.3258C175.903 43.1953 176.22 43.047 176.575 42.8809C176.918 42.6894 177.267 42.5106 177.622 42.3445C178.003 42.1665 178.345 42.0063 178.65 41.8639C178.942 41.6962 179.177 41.5708 179.355 41.4877C180.724 40.847 181.956 40.4406 183.05 40.2687C184.17 40.085 185.153 40.1043 185.999 40.3268C186.845 40.5492 187.573 40.9502 188.185 41.5298C188.821 42.0976 189.341 42.8126 189.745 43.6749C190.101 44.4357 190.288 45.1671 190.307 45.8691C190.352 46.5592 190.278 47.2275 190.086 47.8738C189.907 48.4829 189.642 49.071 189.289 49.638C188.924 50.1797 188.528 50.6892 188.103 51.1666C190.336 50.5234 192.273 50.4673 193.913 50.9986C195.553 51.5298 196.811 52.7338 197.689 54.6106C198.283 55.8786 198.565 57.076 198.535 58.2026C198.494 59.3038 198.191 60.3419 197.627 61.3168C197.077 62.2544 196.296 63.1297 195.286 63.9426C194.275 64.7555 193.085 65.4824 191.715 66.1231L185.134 69.2022ZM182.992 56.2006C183.241 56.7332 183.538 57.3672 183.882 58.1027C184.226 58.8382 184.559 59.5483 184.879 60.2331C185.225 60.906 185.528 61.5214 185.789 62.0793C186.075 62.6254 186.279 62.994 186.399 63.185C186.77 63.8461 187.105 64.1993 187.405 64.2446C187.704 64.29 188.044 64.2237 188.425 64.0457L189.224 63.672C189.832 63.3872 190.468 63.028 191.131 62.5943C191.807 62.1234 192.391 61.5874 192.882 60.9865C193.374 60.3855 193.711 59.7178 193.893 58.9835C194.075 58.2492 193.97 57.4636 193.578 56.6267C193.246 55.9165 192.791 55.3723 192.212 54.994C191.621 54.5903 190.945 54.3347 190.184 54.2271C189.422 54.1196 188.607 54.161 187.738 54.3513C186.882 54.5044 185.998 54.7945 185.085 55.2217L182.992 56.2006ZM182.789 53.189C183.6 52.8093 184.223 52.456 184.658 52.1291C185.118 51.7903 185.538 51.2689 185.92 50.5649C186.312 49.9488 186.531 49.228 186.578 48.4025C186.612 47.5516 186.416 46.6696 185.989 45.7566C185.538 44.7929 184.813 44.2354 183.815 44.0841C182.805 43.9075 181.603 44.1455 180.208 44.7981L178.306 45.688C178.752 46.8395 179.093 47.7002 179.328 48.27C179.552 48.8144 179.765 49.3022 179.967 49.7334L181.07 52.092C181.343 52.6753 181.558 53.0692 181.716 53.2738C181.873 53.4783 182.117 53.5034 182.447 53.3492L182.789 53.189Z" fill="#FFFCF3"/>
<path d="M218.976 43.5851L218.29 44.642C216.871 45.1626 215.469 45.6916 214.085 46.2289C212.728 46.7566 211.327 47.2856 209.881 47.8159L206.647 49.0018C206.689 49.1955 206.743 49.3843 206.81 49.5683C206.868 49.726 206.926 49.8838 206.984 50.0415C207.235 50.725 207.604 51.365 208.091 51.9617C208.578 52.5585 209.173 53.0412 209.875 53.4101C210.593 53.743 211.41 53.9357 212.324 53.9882C213.228 54.0144 214.245 53.8202 215.376 53.4056C216.191 53.1067 217.006 52.6882 217.823 52.15C218.656 51.576 219.4 50.9603 220.053 50.303L220.825 50.3332L221.346 51.7527L221.11 52.3311C220.663 53.062 219.903 53.8774 218.831 54.7775C217.786 55.6679 216.554 56.3734 215.134 56.8941C213.741 57.4051 212.384 57.6493 211.063 57.6266C209.76 57.5681 208.533 57.2724 207.383 56.7398C206.259 56.1975 205.249 55.4348 204.352 54.4517C203.481 53.4589 202.785 52.2528 202.264 50.8332C201.734 49.3874 201.488 47.9863 201.527 46.6298C201.567 45.2733 201.84 44.025 202.346 42.8849C202.879 41.7352 203.61 40.7212 204.541 39.8431C205.498 38.9553 206.62 38.2752 207.908 37.8028C208.592 37.5521 209.388 37.3645 210.296 37.2399C211.231 37.1058 212.19 37.1569 213.171 37.3934C214.143 37.6037 215.118 38.0662 216.096 38.7812C217.064 39.4698 217.946 40.5331 218.742 41.971L218.976 43.5851ZM209.032 40.7457C207.744 41.2181 206.85 41.9933 206.351 43.0711C205.868 44.1131 205.71 45.1852 205.876 46.2876L207.847 45.5645C208.767 45.227 209.669 44.8812 210.553 44.5271C211.428 44.1467 212.325 43.7878 213.245 43.4503C213.587 43.325 213.803 43.1414 213.893 42.8995C213.974 42.6314 213.976 42.3921 213.898 42.1818C213.609 41.3932 212.982 40.8627 212.017 40.5902C211.052 40.3178 210.057 40.3696 209.032 40.7457Z" fill="#FFFCF3"/>
<path d="M265.004 43.1072C264.813 43.1497 264.496 43.2057 264.052 43.2753C263.609 43.345 263.152 43.4176 262.681 43.4933C262.21 43.569 261.753 43.6417 261.309 43.7113C260.866 43.7809 260.549 43.837 260.357 43.8794L257.938 44.4158C257.747 44.4582 257.435 44.5416 257.004 44.6659C256.573 44.7902 256.128 44.9175 255.669 45.0479C255.21 45.1782 254.765 45.3056 254.334 45.4299C253.903 45.5542 253.591 45.6376 253.4 45.68L253.282 45.5342L253.059 43.9487L253.187 43.7483C253.624 43.6514 254.031 43.5468 254.408 43.4346C254.779 43.2951 255.079 43.0993 255.31 42.8474C255.514 42.6015 255.651 42.313 255.721 41.982C255.791 41.651 255.809 41.0877 255.776 40.292C255.761 40.0945 255.726 39.8728 255.672 39.6268C255.638 39.3474 255.579 39.0163 255.494 38.6336C255.437 38.2448 255.348 37.7771 255.226 37.2304C255.105 36.6836 254.954 36.0002 254.772 35.1801L254.045 31.8998L241.907 34.5907L242.453 37.051C242.671 38.0351 242.85 38.8415 242.989 39.4703C243.122 40.0717 243.235 40.5774 243.325 40.9874C243.444 41.3914 243.536 41.7437 243.603 42.0444C243.691 42.3117 243.785 42.6064 243.885 42.9283C244.109 43.6816 244.35 44.1874 244.608 44.4457C244.866 44.704 245.126 44.9045 245.387 45.0474C245.676 45.1842 246.017 45.2375 246.412 45.2074C246.828 45.1438 247.255 45.0635 247.692 44.9665L247.893 45.0942L248.361 46.6251L248.316 46.8073C248.124 46.8497 247.807 46.9057 247.363 46.9754C246.92 47.045 246.463 47.1177 245.992 47.1934C245.521 47.2691 245.064 47.3417 244.621 47.4114C244.177 47.481 243.86 47.537 243.668 47.5794L241.249 48.1158C241.058 48.1582 240.747 48.2416 240.315 48.3659C239.884 48.4902 239.439 48.6176 238.98 48.7479C238.522 48.8783 238.077 49.0056 237.645 49.1299C237.214 49.2542 236.903 49.3376 236.711 49.38L236.593 49.2342L236.37 47.6488L236.539 47.4393C236.977 47.3423 237.384 47.2377 237.76 47.1256C238.131 46.986 238.418 46.7933 238.621 46.5474C238.798 46.3076 238.948 46.0161 239.073 45.673C239.225 45.3238 239.243 44.7604 239.128 43.9829C239.086 43.7916 239.037 43.5729 238.983 43.3268C238.95 43.0474 238.891 42.7164 238.806 42.3336C238.748 41.9449 238.659 41.4771 238.538 40.9304C238.416 40.3837 238.265 39.7003 238.083 38.8802L236.601 32.1965C236.389 31.2397 236.21 30.4333 236.065 29.7772C235.919 29.1212 235.782 28.5638 235.651 28.1051C235.548 27.6404 235.447 27.2471 235.347 26.9251C235.274 26.5971 235.187 26.2721 235.087 25.9501C234.875 25.2515 234.637 24.7594 234.373 24.4738C234.109 24.1881 233.846 23.9739 233.585 23.831C233.297 23.6942 232.958 23.6546 232.569 23.7121C232.174 23.7423 231.758 23.8059 231.321 23.9028L231.08 23.7843L230.611 22.2534L230.657 22.0712C230.848 22.0287 231.165 21.9727 231.609 21.9031C232.052 21.8334 232.509 21.7608 232.98 21.6851C233.451 21.6094 233.908 21.5367 234.352 21.4671C234.795 21.3975 235.112 21.3414 235.304 21.299L237.723 20.7626C237.914 20.7202 238.226 20.6368 238.657 20.5125C239.088 20.3882 239.533 20.2609 239.992 20.1305C240.451 20.0002 240.896 19.8728 241.327 19.7485C241.758 19.6242 242.07 19.5408 242.261 19.4984L242.379 19.6442L242.602 21.2297L242.474 21.4301C242.091 21.5149 241.687 21.6332 241.262 21.7848C240.858 21.903 240.554 22.0851 240.351 22.331C240.174 22.5709 240.01 22.8654 239.858 23.2146C239.734 23.5577 239.742 24.115 239.885 24.8865C239.942 25.2752 239.994 25.6367 240.039 25.9707C240.112 26.2988 240.183 26.6845 240.253 27.128C240.35 27.5653 240.468 28.0984 240.607 28.7271C240.747 29.3559 240.925 30.1623 241.144 31.1464L241.235 31.5564L253.372 28.8655L253.29 28.4964C253.078 27.5397 252.899 26.7333 252.754 26.0772C252.608 25.4211 252.47 24.8638 252.34 24.4051C252.237 23.9404 252.135 23.547 252.035 23.2251C251.963 22.897 251.876 22.572 251.776 22.2501C251.552 21.4968 251.311 20.991 251.052 20.7327C250.794 20.4744 250.535 20.2739 250.274 20.131C249.985 19.9942 249.633 19.9576 249.217 20.0211C248.822 20.0513 248.406 20.1149 247.969 20.2119L247.768 20.0842L247.3 18.5533L247.345 18.3711C247.537 18.3287 247.854 18.2727 248.298 18.203C248.741 18.1334 249.198 18.0607 249.669 17.985C250.14 17.9093 250.597 17.8367 251.04 17.767C251.484 17.6974 251.801 17.6414 251.992 17.599L254.412 17.0626C254.603 17.0202 254.914 16.9368 255.346 16.8125C255.777 16.6882 256.222 16.5608 256.681 16.4305C257.139 16.3001 257.584 16.1728 258.016 16.0485C258.447 15.9242 258.758 15.8408 258.95 15.7984L259.068 15.9442L259.29 17.5296L259.122 17.7391C258.684 17.8361 258.267 17.9574 257.869 18.1029C257.492 18.2151 257.216 18.3911 257.039 18.631C256.863 18.8708 256.713 19.1623 256.588 19.5054C256.491 19.8425 256.472 20.4058 256.533 21.1955C256.59 21.5843 256.642 21.9457 256.687 22.2798C256.76 22.6078 256.845 22.9905 256.941 23.4279C257.038 23.8653 257.157 24.3983 257.296 25.0271C257.435 25.6558 257.614 26.4622 257.832 27.4463L259.142 33.351C259.36 34.3351 259.538 35.1415 259.678 35.7702C259.811 36.3716 259.923 36.8773 260.014 37.2874C260.105 37.6974 260.184 38.0528 260.251 38.3535C260.339 38.6208 260.433 38.9154 260.533 39.2374C260.757 39.9907 260.998 40.4965 261.256 40.7547C261.542 41.007 261.815 41.2045 262.076 41.3474C262.364 41.4842 262.706 41.5375 263.101 41.5073C263.49 41.4498 263.903 41.3726 264.34 41.2756L264.581 41.3941L265.05 42.925L265.004 43.1072Z" fill="#FFFCF3"/>
<path d="M285.145 29.5995L284.238 30.4743C282.737 30.6611 281.253 30.8601 279.783 31.0712C278.342 31.2789 276.857 31.4779 275.329 31.6682L271.911 32.0937C271.908 32.2917 271.918 32.4879 271.942 32.6824C271.963 32.8491 271.984 33.0158 272.005 33.1825C272.095 33.905 272.31 34.6118 272.65 35.3031C272.99 35.9944 273.46 36.5989 274.061 37.1167C274.685 37.6032 275.437 37.9751 276.316 38.2326C277.191 38.4622 278.226 38.5026 279.421 38.3539C280.282 38.2466 281.171 38.0231 282.088 37.6831C283.029 37.312 283.893 36.88 284.678 36.3872L285.423 36.5908L285.609 38.0912L285.25 38.6015C284.649 39.2125 283.725 39.8354 282.477 40.4704C281.258 41.1019 279.898 41.511 278.398 41.6979C276.925 41.8812 275.548 41.8128 274.267 41.4927C273.01 41.1413 271.881 40.5764 270.882 39.798C269.909 39.0161 269.097 38.045 268.445 36.8847C267.82 35.721 267.415 34.3889 267.228 32.8885C267.038 31.3603 267.115 29.9399 267.459 28.6273C267.804 27.3147 268.351 26.1602 269.102 25.1638C269.88 24.1639 270.822 23.3413 271.926 22.6959C273.059 22.0469 274.306 21.6377 275.667 21.4682C276.39 21.3783 277.208 21.3752 278.121 21.459C279.062 21.5393 279.984 21.8054 280.887 22.2574C281.786 22.6815 282.632 23.3522 283.423 24.2694C284.211 25.1589 284.83 26.3938 285.281 27.9742L285.145 29.5995ZM276.098 24.5889C274.737 24.7584 273.691 25.3118 272.961 26.2492C272.256 27.1553 271.86 28.164 271.772 29.2753L273.856 29.0159C274.829 28.8948 275.785 28.7615 276.727 28.6161C277.664 28.4429 278.62 28.2958 279.592 28.1747C279.953 28.1297 280.205 27.9996 280.348 27.7843C280.487 27.5413 280.542 27.3086 280.515 27.0863C280.411 26.2528 279.92 25.5944 279.041 25.1113C278.163 24.6281 277.182 24.454 276.098 24.5889Z" fill="#FFFCF3"/>
<path d="M296.898 24.6427C297.148 24.0962 297.425 23.5202 297.729 22.9147C298.06 22.3077 298.435 21.7403 298.855 21.2126C299.275 20.6848 299.755 20.2379 300.296 19.8718C300.865 19.5041 301.513 19.3004 302.24 19.2606C302.463 19.2484 302.73 19.2618 303.041 19.3009C303.378 19.3104 303.703 19.3488 304.015 19.4158C304.355 19.4813 304.682 19.5615 304.995 19.6565C305.309 19.7515 305.554 19.8643 305.729 19.9949L306.036 20.2305L305.781 24.7873L303.978 24.886C303.876 24.5551 303.633 24.2318 303.252 23.9162C302.896 23.5712 302.355 23.4185 301.628 23.4583C300.985 23.4935 300.407 23.6934 299.894 24.058C299.38 24.3946 298.94 24.8113 298.575 25.308C298.209 25.8048 297.93 26.3388 297.737 26.9102C297.543 27.4537 297.457 27.9491 297.482 28.3964L297.64 31.2901C297.699 32.3525 297.742 33.1493 297.771 33.6805C297.828 34.2102 297.882 34.6699 297.931 35.0598C298.021 35.6718 298.118 36.1713 298.223 36.5581C298.355 36.9154 298.538 37.1858 298.773 37.3693C298.89 37.475 299.064 37.5636 299.292 37.6353C299.547 37.6774 299.8 37.7056 300.054 37.7198C300.307 37.7339 300.545 37.7349 300.769 37.7227C301.02 37.7089 301.216 37.6982 301.356 37.6905L301.577 37.8887L301.737 39.268L301.662 39.4404C301.494 39.4496 301.214 39.4509 300.821 39.4444C300.428 39.4378 300.007 39.4329 299.558 39.4294C299.111 39.4539 298.691 39.4629 298.298 39.4563C297.906 39.4778 297.627 39.4931 297.459 39.5023L294.775 39.6492C294.579 39.6599 294.272 39.6768 293.853 39.6998C293.463 39.7491 293.044 39.7861 292.597 39.8106C292.151 39.863 291.719 39.9147 291.301 39.9656C290.911 40.015 290.619 40.0451 290.423 40.0558L290.372 39.8903L290.378 38.4599L290.494 38.2853C290.969 38.2592 291.416 38.2208 291.834 38.1698C292.25 38.091 292.564 37.9336 292.775 37.6976C292.988 37.4897 293.128 37.2296 293.195 36.9175C293.29 36.6039 293.345 36.0681 293.36 35.3101C293.369 34.9731 293.359 34.525 293.328 33.9658C293.298 33.4067 293.255 32.6239 293.2 31.6174L293.032 28.5559C293 27.9688 292.973 27.4796 292.952 27.0881C292.929 26.6688 292.895 26.3061 292.85 26.0001C292.833 25.6925 292.804 25.4137 292.762 25.1636C292.748 24.912 292.72 24.6472 292.677 24.3691C292.605 24.0926 292.507 23.8316 292.381 23.5861C292.256 23.3406 292.149 23.1782 292.06 23.0989C291.761 22.7508 291.4 22.5602 290.977 22.5273C290.555 22.4943 290.12 22.4901 289.673 22.5146L289.496 22.356L289.418 20.9302L289.579 20.7952L290.333 20.7538C290.949 20.7201 291.745 20.6765 292.724 20.6229C293.701 20.5414 294.551 20.4388 295.273 20.3151L296.729 20.025L297.024 20.8081C296.886 21.3485 296.793 21.9565 296.746 22.632C296.727 23.3061 296.735 23.9646 296.77 24.6077L296.898 24.6427Z" fill="#FFFCF3"/>
<path d="M328.126 28.45L327.107 29.1913C325.595 29.1692 324.097 29.1613 322.613 29.1677C321.156 29.1744 319.658 29.1666 318.119 29.1441L314.675 29.0938C314.644 29.2894 314.627 29.4852 314.624 29.6812C314.622 29.8492 314.62 30.0171 314.617 30.1851C314.606 30.913 314.722 31.6428 314.963 32.3744C315.204 33.106 315.587 33.7697 316.11 34.3654C316.662 34.9335 317.355 35.4056 318.19 35.7818C319.025 36.1301 320.044 36.313 321.248 36.3305C322.116 36.3432 323.028 36.2445 323.983 36.0344C324.966 35.7967 325.881 35.488 326.727 35.1083L327.436 35.4127L327.414 36.9246L326.987 37.3804C326.308 37.9025 325.306 38.392 323.984 38.8487C322.689 39.3059 321.286 39.5234 319.774 39.5014C318.29 39.4797 316.935 39.2219 315.711 38.728C314.514 38.2065 313.474 37.4912 312.591 36.5822C311.737 35.6737 311.066 34.5998 310.58 33.3606C310.122 32.1217 309.904 30.7464 309.926 29.2346C309.949 27.6947 310.221 26.2986 310.744 25.0461C311.266 23.7935 311.968 22.7257 312.849 21.8424C313.758 20.9596 314.804 20.2748 315.987 19.788C317.198 19.3016 318.49 19.0684 319.862 19.0885C320.589 19.0991 321.4 19.2089 322.293 19.418C323.214 19.6274 324.09 20.0183 324.922 20.5905C325.754 21.1347 326.499 21.9156 327.156 22.9333C327.814 23.923 328.257 25.2316 328.485 26.8591L328.126 28.45ZM319.858 22.2387C318.486 22.2187 317.374 22.6225 316.522 23.4502C315.698 24.2503 315.166 25.1946 314.926 26.2832L317.026 26.3139C318.006 26.3282 318.972 26.3282 319.924 26.3141C320.877 26.272 321.843 26.2581 322.823 26.2724C323.187 26.2777 323.454 26.1836 323.625 25.9901C323.796 25.7686 323.884 25.5458 323.887 25.3219C323.899 24.4819 323.504 23.7621 322.7 23.1623C321.897 22.5625 320.949 22.2547 319.858 22.2387Z" fill="#FFFCF3"/>
<path d="M375.681 16.8346L375.371 18.4027L375.14 18.5392C374.724 18.4798 374.304 18.448 373.881 18.444C373.489 18.4162 373.154 18.4815 372.877 18.6399C372.627 18.8022 372.356 19.018 372.063 19.2872C371.798 19.5604 371.568 20.0791 371.374 20.8433C371.29 21.2274 371.211 21.5837 371.136 21.9124C371.088 22.245 371.019 22.6311 370.928 23.0706C370.864 23.5141 370.787 24.0546 370.696 24.6921C370.605 25.3296 370.488 26.1473 370.345 27.1451L369.418 33.6312C369.196 35.1834 369.013 36.4584 368.871 37.4562C368.756 38.4581 368.647 39.3193 368.543 40.04C368.472 40.7369 368.411 41.3645 368.359 41.9228C368.335 42.4851 368.303 43.1028 368.264 43.776L367.901 43.9363L362.817 42.9971L362.473 42.4387L352.396 21.2265C352.38 21.7334 352.293 22.5412 352.135 23.6499C352.008 24.7349 351.841 25.998 351.635 27.4394L351.195 30.5161C351.147 30.8487 351.084 31.2922 351.005 31.8465C350.929 32.3732 350.85 32.9275 350.767 33.5096C350.711 34.0956 350.644 34.6658 350.565 35.2202C350.517 35.7508 350.483 36.1844 350.464 36.521C350.42 37.2219 350.497 37.7703 350.695 38.1663C350.893 38.5623 351.119 38.8633 351.372 39.0692C351.562 39.3227 351.835 39.4891 352.192 39.5683C352.548 39.6475 353.003 39.7268 353.558 39.8061L353.742 40.0021L353.641 41.5999L353.534 41.7543C353.312 41.7226 352.995 41.6632 352.583 41.576C352.199 41.4928 351.787 41.4056 351.348 41.3144C350.936 41.2273 350.524 41.1401 350.112 41.0529C349.728 40.9697 349.439 40.9142 349.245 40.8865L346.792 40.5357C346.598 40.5079 346.277 40.4762 345.83 40.4405C345.383 40.4048 344.921 40.3671 344.446 40.3274C343.971 40.2878 343.51 40.2501 343.062 40.2144C342.615 40.1787 342.294 40.1469 342.1 40.1192L342.041 39.941L342.391 38.3789L342.623 38.2423C343.122 38.3137 343.54 38.3593 343.876 38.3791C344.244 38.3752 344.581 38.2961 344.886 38.1417C345.1 38.0308 345.367 37.8428 345.688 37.5775C346.013 37.2846 346.274 36.7421 346.472 35.9502C346.528 35.7601 346.573 35.5404 346.609 35.2909C346.676 35.0177 346.738 34.687 346.793 34.299C346.849 33.9109 346.916 33.4397 346.995 32.8854C347.075 32.331 347.174 31.6381 347.293 30.8065L348.262 24.0295C348.401 23.0593 348.517 22.2417 348.613 21.5764C348.708 20.9112 348.789 20.343 348.856 19.8718C348.924 19.4006 348.967 18.9967 348.987 18.6601C349.035 18.3275 349.069 17.9929 349.088 17.6563C349.116 17.0663 349.021 16.5436 348.803 16.0882C348.613 15.6367 348.406 15.31 348.18 15.108C347.962 14.8506 347.661 14.6803 347.277 14.5971C346.921 14.5178 346.507 14.4445 346.036 14.3771L345.852 14.1811L345.953 12.5833L346.06 12.4289C346.254 12.4567 346.529 12.5102 346.885 12.5894C347.27 12.6726 347.654 12.7558 348.038 12.839C348.422 12.9223 348.792 13.0035 349.148 13.0827C349.533 13.166 349.822 13.2214 350.016 13.2492L353.55 13.7546C353.771 13.7863 354.051 13.8121 354.387 13.8319C354.724 13.8518 355.021 13.8518 355.278 13.832L355.468 13.9865C355.496 14.3865 355.626 14.9567 355.86 15.6972C356.097 16.41 356.39 17.2297 356.739 18.1564C357.119 19.0593 357.518 20.0215 357.938 21.0432C358.362 22.0372 358.785 23.0312 359.209 24.0252C359.969 25.8309 360.648 27.413 361.245 28.7713C361.847 30.1019 362.387 31.2681 362.866 32.27C363.345 33.2719 363.761 34.1233 364.113 34.8243C364.47 35.4975 364.77 36.0638 365.016 36.5231C365.119 35.8025 365.22 35.0957 365.319 34.4027C365.446 33.7137 365.561 33.0089 365.664 32.2882L366.473 26.6338C366.611 25.6636 366.728 24.8459 366.823 24.1807C366.918 23.5155 366.986 22.9453 367.026 22.4701C367.093 21.9989 367.137 21.595 367.156 21.2584C367.204 20.9258 367.238 20.5912 367.258 20.2546C367.269 19.7755 367.206 19.328 367.068 18.9122C366.961 18.4727 366.735 18.0727 366.391 17.7123C366.173 17.4549 365.858 17.2826 365.446 17.1954C365.062 17.1122 364.648 17.0389 364.205 16.9755L364.062 16.7854L364.164 15.1876L364.271 15.0332C364.465 15.061 364.74 15.1144 365.096 15.1937C365.453 15.2729 365.809 15.3522 366.165 15.4314C366.549 15.5147 366.92 15.5959 367.276 15.6751C367.632 15.7544 367.908 15.8079 368.102 15.8356L371.719 16.3529C371.913 16.3807 372.19 16.4203 372.55 16.4718C372.915 16.4957 373.293 16.5214 373.685 16.5492C374.077 16.577 374.455 16.6028 374.819 16.6266C375.184 16.6504 375.465 16.6623 375.663 16.6624L375.681 16.8346Z" fill="#FFFCF3"/>
<path d="M389.021 27.8755C390.625 28.2679 391.983 28.9028 393.095 29.7799C394.213 30.6299 395.077 31.634 395.687 32.7921C396.332 33.9297 396.722 35.1637 396.857 36.4941C397.02 37.8311 396.942 39.1524 396.623 40.4579C396.317 41.709 395.817 42.8694 395.123 43.9392C394.429 45.0089 393.551 45.8895 392.488 46.5808C391.425 47.2721 390.202 47.7368 388.818 47.9747C387.433 48.2127 385.912 48.1288 384.253 47.723C382.539 47.3039 381.113 46.6524 379.975 45.7686C378.836 44.8848 377.958 43.8774 377.341 42.7464C376.751 41.6221 376.396 40.4253 376.274 39.156C376.158 37.8595 376.254 36.5857 376.56 35.3346C376.886 34.0018 377.426 32.7937 378.181 31.71C378.936 30.6264 379.845 29.7389 380.908 29.0476C382.004 28.3357 383.228 27.8711 384.578 27.6537C385.962 27.4157 387.443 27.4896 389.021 27.8755ZM384.9 44.898C385.744 45.1042 386.525 45.0934 387.243 44.8656C387.996 44.6173 388.666 44.2336 389.254 43.7145C389.849 43.1681 390.342 42.5103 390.731 41.7409C391.155 40.951 391.474 40.1208 391.686 39.2505C391.893 38.4074 391.977 37.5343 391.938 36.6313C391.933 35.7077 391.783 34.8494 391.487 34.0563C391.218 33.2699 390.81 32.5793 390.264 31.9845C389.718 31.3897 389.023 30.9892 388.18 30.7829C387.309 30.5701 386.498 30.5878 385.745 30.8361C385.02 31.0911 384.374 31.4951 383.806 32.048C383.238 32.601 382.746 33.2589 382.329 34.0216C381.939 34.791 381.641 35.5972 381.435 36.4404C381.222 37.3107 381.121 38.1941 381.132 39.0905C381.171 39.9935 381.321 40.8518 381.583 41.6654C381.88 42.4584 382.301 43.1524 382.847 43.7472C383.4 44.3148 384.085 44.6984 384.9 44.898Z" fill="#FFFCF3"/>
<path d="M416.813 57.4178L416.395 57.091L416.347 49.8105C416.33 48.8537 416.32 47.9591 416.318 47.1266C416.343 46.3034 416.333 45.4088 416.29 44.4427C415.918 44.905 415.546 45.3672 415.174 45.8295C414.802 46.2918 414.458 46.7192 414.14 47.1117C413.823 47.5042 413.537 47.8486 413.284 48.1448C413.056 48.4505 412.911 48.6514 412.847 48.7476L408.61 54.2862L404.463 53.0383L404.137 52.7L403.612 45.3838C403.574 45.0731 403.53 44.6118 403.479 43.9998C403.465 43.3707 403.429 42.6748 403.373 41.9121C403.343 41.1588 403.301 40.3566 403.246 39.5053C403.191 38.6541 403.122 37.8425 403.04 37.0705C402.972 36.4227 402.886 35.8277 402.781 35.2855C402.667 34.7697 402.481 34.3322 402.222 33.973C401.989 33.6232 401.606 33.3237 401.07 33.0744L400.903 32.7922L401.38 31.4463L401.594 31.3441C402.024 31.556 402.481 31.7772 402.963 32.0078C403.446 32.2384 403.899 32.4285 404.321 32.5783L407.448 33.6872C407.844 33.8275 408.328 33.9696 408.901 34.1133C409.5 34.2664 410.047 34.4008 410.541 34.5165L410.643 34.731L410.194 35.9977L409.979 36.0999C409.459 35.9748 408.967 35.9788 408.504 36.1117C408.077 36.2275 407.779 36.523 407.611 36.998C407.499 37.3147 407.412 37.8931 407.352 38.7333C407.318 39.5828 407.297 40.4813 407.287 41.4287C407.278 42.3761 407.27 43.2792 407.262 44.1381C407.291 44.98 407.311 45.5516 407.323 45.8529L407.591 50.627L410.569 47.0039C411.085 46.385 411.603 45.7218 412.121 45.0143C412.639 44.3068 413.104 43.6249 413.515 42.9685C413.962 42.2951 414.345 41.6736 414.666 41.1041C414.987 40.5345 415.208 40.0782 415.33 39.7352C415.433 39.4449 415.438 39.1793 415.345 38.9384C415.252 38.6975 415.119 38.4869 414.945 38.3065C414.772 38.126 414.571 37.9805 414.343 37.8699C414.15 37.7423 413.975 37.6504 413.816 37.5942L413.649 37.3121L414.126 35.9662L414.341 35.864C414.771 36.0759 415.227 36.2971 415.71 36.5277C416.192 36.7582 416.645 36.9484 417.067 37.0981L420.194 38.207C420.59 38.3474 421.075 38.4895 421.647 38.6332C422.247 38.7863 422.793 38.9207 423.287 39.0363L423.389 39.2508L422.94 40.5175L422.726 40.6197C422.205 40.4947 421.714 40.4986 421.251 40.6315C420.823 40.7474 420.526 41.0428 420.357 41.5178C420.245 41.8345 420.159 42.4129 420.098 43.2531C420.038 44.0933 419.99 44.9824 419.955 45.9205C419.919 46.8585 419.884 47.7523 419.85 48.6018C419.852 49.4343 419.859 50.0013 419.871 50.3026L419.941 55.0064L422.998 51.4115C423.352 51.002 423.782 50.5009 424.289 49.9084C424.823 49.3252 425.339 48.7062 425.839 48.0515C426.365 47.4062 426.833 46.7553 427.244 46.099C427.682 45.4519 427.998 44.8513 428.195 44.2971C428.401 43.7166 428.339 43.2637 428.008 42.9386C427.687 42.5871 427.312 42.3055 426.882 42.0936L426.78 41.8791L427.229 40.6124L427.443 40.5102C427.907 40.7936 428.359 41.028 428.798 41.2134C429.238 41.3989 429.655 41.5618 430.051 41.7022L433.257 42.8392C433.706 42.9983 434.151 43.1263 434.592 43.2232C435.059 43.3295 435.553 43.4452 436.073 43.5702L436.175 43.7847L435.698 45.1306L435.39 45.2443C434.923 45.138 434.476 45.1428 434.048 45.2586C433.657 45.3575 433.236 45.5797 432.787 45.9254C432.086 46.4789 431.306 47.1681 430.449 47.9931C429.619 48.8275 428.801 49.6665 427.997 50.5103C427.229 51.337 426.528 52.0985 425.895 52.795C425.288 53.5008 424.876 53.9933 424.658 54.2725L420.961 58.6656L416.813 57.4178Z" fill="#FFFCF3"/>
</svg>
