<svg width="630" height="644" viewBox="0 0 630 644" fill="none" xmlns="http://www.w3.org/2000/svg">
<path d="M629.686 345.539C629.686 509.865 488.726 643.077 314.843 643.077C140.96 643.077 0 509.865 0 345.539C0 181.213 140.96 48 314.843 48C488.726 48 629.686 181.213 629.686 345.539Z" fill="#B0554B" fill-opacity="0.9"/>
<path d="M277.176 11.287L277.237 12.8868L277.09 13.0732C276.645 13.1253 276.231 13.202 275.848 13.3032C275.462 13.3766 275.141 13.527 274.886 13.7542C274.658 13.9782 274.451 14.2562 274.265 14.5882C274.106 14.9169 274.072 15.4706 274.163 16.2492C274.181 16.6418 274.195 17.0066 274.207 17.3436C274.246 17.6773 274.278 18.0683 274.302 18.5165C274.354 18.9614 274.417 19.5037 274.492 20.1434C274.567 20.783 274.663 21.6034 274.781 22.6045L275.484 28.6115C275.602 29.6126 275.698 30.433 275.773 31.0726C275.844 31.6845 275.905 32.1989 275.953 32.6161C276.03 33.03 276.086 33.3899 276.122 33.6958C276.183 33.9706 276.246 34.2733 276.313 34.6037C276.46 35.3759 276.649 35.9035 276.879 36.1866C277.11 36.4698 277.347 36.6956 277.593 36.8642C277.866 37.0296 278.2 37.1173 278.596 37.1273C279.017 37.1062 279.449 37.0696 279.894 37.0175L280.081 37.1648L280.391 38.7353L280.328 38.912C280.133 38.9348 279.811 38.9583 279.363 38.9826C278.915 39.0069 278.453 39.0329 277.977 39.0604C277.501 39.088 277.039 39.114 276.59 39.1383C276.142 39.1626 275.821 39.1861 275.626 39.2089L273.165 39.4972C272.97 39.52 272.652 39.5714 272.21 39.6513C271.769 39.7312 271.313 39.8128 270.844 39.896C270.374 39.9792 269.918 40.0607 269.477 40.1407C269.035 40.2206 268.717 40.272 268.522 40.2948L268.419 40.1377L268.359 38.5379L268.548 38.3466C268.993 38.2944 269.408 38.2317 269.794 38.1583C270.205 38.0538 270.51 37.8912 270.71 37.6704C270.909 37.4497 271.075 37.1766 271.206 36.8512C271.365 36.5225 271.454 35.9623 271.474 35.1705C271.451 34.9759 271.425 34.7534 271.396 34.5031C271.391 34.2218 271.366 33.8864 271.32 33.4971C271.303 33.1045 271.261 32.6301 271.196 32.0739C271.131 31.5177 271.049 30.8224 270.952 29.9881L270.155 23.1886C270.041 22.2153 269.945 21.3949 269.867 20.7274C269.789 20.06 269.708 19.4915 269.625 19.022C269.57 18.5493 269.508 18.1476 269.441 17.8172C269.402 17.4835 269.349 17.1514 269.283 16.8209C269.142 16.1044 268.955 15.5906 268.721 15.2797C268.488 14.9688 268.248 14.7291 268.003 14.5604C267.73 14.3951 267.397 14.3213 267.004 14.3391C266.608 14.3291 266.188 14.3501 265.743 14.4023L265.515 14.2598L265.204 12.6893L265.268 12.5127C265.463 12.4899 265.784 12.4663 266.232 12.442C266.681 12.4177 267.143 12.3918 267.619 12.3642C268.095 12.3366 268.557 12.3107 269.005 12.2864C269.453 12.2621 269.775 12.2385 269.969 12.2157L272.431 11.9274C272.625 11.9046 272.943 11.8533 273.385 11.7733C273.827 11.6934 274.282 11.6119 274.752 11.5287C275.221 11.4455 275.677 11.3639 276.119 11.284C276.56 11.2041 276.879 11.1527 277.073 11.1299L277.176 11.287Z" fill="#B0554B"/>
<path d="M282.749 18.9404L282.913 18.8084L285.011 18.7318C285.655 18.7083 286.34 18.6833 287.068 18.6568C287.822 18.6012 288.478 18.5212 289.034 18.4169L290.496 18.1534L290.777 18.9417C290.726 19.0836 290.677 19.2816 290.63 19.5354C290.61 19.7603 290.578 20.0137 290.532 20.2955C290.514 20.5764 290.496 20.8572 290.479 21.138C290.46 21.3909 290.454 21.6152 290.461 21.8111L290.59 21.8905C290.877 21.3196 291.208 20.7752 291.581 20.2572C291.982 19.7103 292.441 19.2452 292.959 18.8621C293.477 18.4509 294.067 18.1212 294.73 17.8728C295.394 17.6245 296.159 17.4845 297.027 17.4528C298.566 17.3966 299.951 17.7384 301.183 18.4779C302.442 19.2165 303.364 20.2756 303.946 21.6553C304.236 21.1404 304.581 20.6094 304.981 20.0625C305.381 19.5155 305.854 19.022 306.398 18.5818C306.941 18.1137 307.558 17.741 308.248 17.4636C308.966 17.1572 309.772 16.9877 310.667 16.955C311.535 16.9234 312.378 17.0047 313.198 17.1989C314.018 17.3932 314.772 17.7159 315.461 18.1671C316.15 18.6182 316.745 19.1989 317.248 19.9091C317.75 20.6192 318.118 21.4884 318.351 22.5165C318.518 23.239 318.616 24.0059 318.645 24.8173C318.703 25.6278 318.747 26.4387 318.776 27.2502L318.968 32.4967C318.988 33.0563 319.073 33.4595 319.222 33.7062C319.399 33.9519 319.562 34.1842 319.71 34.4029C319.916 34.6756 320.23 34.8322 320.651 34.8729C321.101 34.9125 321.55 34.9242 321.998 34.9078L322.172 35.0696L322.308 36.4936L322.23 36.6645C321.724 36.6269 321.177 36.6049 320.588 36.5983C320 36.5918 319.426 36.5987 318.866 36.6192C317.159 36.6814 315.622 36.7796 314.254 36.9135L313.929 36.0848C314 35.718 314.052 35.2398 314.087 34.6501C314.15 34.0594 314.187 33.5397 314.198 33.091C314.213 32.7262 314.21 32.2501 314.188 31.6624C314.195 31.0738 314.201 30.4852 314.208 29.8966C314.213 29.2799 314.207 28.7198 314.188 28.2161C314.197 27.6835 314.196 27.2772 314.186 26.9974C314.166 26.4378 314.112 25.7393 314.025 24.9019C313.966 24.0355 313.855 23.311 313.694 22.7285C313.444 22.0092 313.004 21.4788 312.375 21.1376C311.745 20.7683 311.053 20.5974 310.297 20.625C309.57 20.6515 308.902 20.788 308.295 21.0343C307.714 21.2516 307.192 21.5228 306.727 21.848C306.263 22.1731 305.87 22.5377 305.548 22.9417C305.255 23.3447 305.03 23.7171 304.875 24.059C304.953 24.6726 305.004 25.2871 305.026 25.9027C305.076 26.5173 305.113 27.1324 305.135 27.748L305.327 32.9945C305.348 33.5821 305.42 34.0137 305.542 34.2895C305.692 34.5642 305.883 34.8094 306.115 35.0251C306.375 35.2397 306.688 35.3684 307.054 35.4111C307.447 35.4248 307.853 35.424 308.273 35.4086L308.49 35.6108L308.625 36.9929L308.547 37.1638C308.351 37.171 308.057 37.1677 307.664 37.154C307.271 37.1403 306.851 37.1276 306.402 37.116C305.954 37.1323 305.534 37.1337 305.141 37.12C304.749 37.1343 304.456 37.145 304.26 37.1521L301.993 37.2348C301.797 37.242 301.49 37.2532 301.07 37.2685C300.679 37.3108 300.26 37.3401 299.812 37.3565C299.394 37.3998 298.975 37.4431 298.556 37.4864C298.165 37.5286 297.872 37.5533 297.676 37.5605L297.586 37.3957L297.618 35.9655L297.78 35.7915C298.227 35.7752 298.647 35.7459 299.037 35.7036C299.455 35.6323 299.772 35.4807 299.987 35.2487C300.204 35.0446 300.349 34.7872 300.422 34.4763C300.522 34.1644 300.576 33.7282 300.584 33.1675C300.572 32.8318 300.57 32.3975 300.578 31.8649C300.586 31.3042 300.58 30.7441 300.559 30.1845C300.567 29.6238 300.562 29.1056 300.544 28.63C300.554 28.1253 300.554 27.747 300.545 27.4952C300.535 27.2154 300.523 26.8936 300.51 26.5298C300.496 26.1381 300.467 25.7468 300.425 25.3561C300.383 24.9654 300.327 24.5892 300.258 24.2275C300.216 23.8647 300.148 23.531 300.053 23.2263C299.775 22.508 299.321 21.9781 298.692 21.6368C298.09 21.2665 297.412 21.0952 296.656 21.1228C295.733 21.1564 294.899 21.341 294.155 21.6763C293.41 22.0117 292.767 22.4134 292.223 22.8816C291.708 23.3487 291.305 23.8257 291.015 24.3126C290.752 24.7985 290.628 25.2233 290.641 25.5871L290.782 29.4485C290.804 30.0641 290.823 30.5678 290.837 30.9595C290.879 31.3502 290.905 31.6855 290.916 31.9653C290.954 32.2441 290.978 32.5094 290.987 32.7612C291.023 32.9841 291.06 33.2349 291.098 33.5137C291.176 34.0992 291.318 34.5423 291.525 34.843C291.731 35.1157 291.993 35.3723 292.31 35.6129C292.541 35.8006 292.797 35.9033 293.077 35.9211C293.386 35.9378 293.708 35.9401 294.044 35.9278L294.262 36.13L294.396 37.5121L294.318 37.683C294.123 37.6902 293.814 37.6874 293.394 37.6747C293.001 37.661 292.58 37.6484 292.131 37.6367C291.712 37.6521 291.291 37.6534 290.871 37.6407C290.479 37.655 290.185 37.6657 289.989 37.6729L287.723 37.7556C287.527 37.7627 287.219 37.774 286.799 37.7893C286.409 37.8316 285.989 37.8609 285.542 37.8772C285.123 37.9205 284.704 37.9638 284.286 38.0071C283.895 38.0494 283.602 38.0741 283.406 38.0812L283.358 37.9149L283.389 36.4847L283.509 36.3123C283.957 36.2959 284.362 36.2531 284.723 36.1839C285.113 36.1136 285.416 35.9625 285.631 35.7305C285.82 35.5275 285.979 35.2835 286.109 34.9986C286.238 34.6857 286.32 34.2484 286.355 33.6867C286.367 33.238 286.379 32.7893 286.39 32.3406C286.401 31.8639 286.388 31.1218 286.351 30.1145L286.224 26.6308C286.203 26.0432 286.185 25.5535 286.17 25.1618C286.155 24.7421 286.128 24.3788 286.089 24.0721C286.077 23.7643 286.053 23.485 286.016 23.2342C286.007 22.9823 285.983 22.717 285.945 22.4382C285.879 22.1604 285.785 21.8977 285.664 21.6499C285.543 21.4022 285.439 21.2379 285.352 21.157C285.059 20.8034 284.701 20.6063 284.28 20.5657C283.858 20.5251 283.423 20.5129 282.975 20.5292L282.801 20.3675L282.749 18.9404Z" fill="#B0554B"/>
<path d="M335.785 37.3263C335.882 37.0793 335.958 36.7189 336.012 36.2451C336.094 35.7729 336.188 35.3434 336.293 34.9566L336.258 34.8285C335.9 35.2295 335.486 35.6134 335.017 35.9803C334.576 36.3488 334.082 36.6722 333.534 36.9507C332.986 37.2292 332.4 37.4354 331.775 37.5695C331.178 37.733 330.543 37.7964 329.872 37.7597C328.866 37.7046 327.993 37.5026 327.255 37.1537C326.517 36.8049 325.911 36.365 325.435 35.8342C324.959 35.3034 324.6 34.6949 324.357 34.0086C324.142 33.3238 324.055 32.6179 324.094 31.891C324.154 30.8007 324.444 29.8631 324.964 29.0783C325.483 28.2936 326.148 27.671 326.959 27.2106C327.712 26.7751 328.584 26.4584 329.577 26.2603C330.57 26.0343 331.532 25.8767 332.463 25.7874C333.393 25.6982 334.236 25.6602 334.993 25.6736C335.751 25.659 336.255 25.6586 336.507 25.6724L337.094 25.7045C337.114 24.8363 337.094 24.1622 337.037 23.6824C336.98 23.1745 336.891 22.749 336.77 22.4059C336.549 21.8329 336.151 21.4186 335.576 21.1627C335.031 20.8805 334.367 20.718 333.584 20.6751C333.109 20.6491 332.589 20.6627 332.025 20.7159C331.491 20.7428 330.981 20.841 330.495 21.0107C330.009 21.1804 329.574 21.437 329.191 21.7806C328.837 22.0977 328.617 22.5343 328.53 23.0904L328.356 23.207L327.014 23.1335L326.852 19.1708L326.992 18.926C327.169 18.7675 327.5 18.6034 327.986 18.4337C328.472 18.264 329.055 18.1136 329.735 17.9826C330.417 17.8237 331.152 17.7097 331.941 17.6407C332.76 17.5453 333.574 17.5198 334.385 17.5642C335.476 17.6239 336.488 17.8196 337.424 18.1512C338.36 18.4549 339.15 18.8907 339.792 19.4587C340.462 20.0282 340.97 20.729 341.317 21.5612C341.666 22.3655 341.811 23.2988 341.753 24.3612C341.69 25.5075 341.622 26.4853 341.55 27.2945C341.505 28.1053 341.45 28.8594 341.384 29.5568C341.318 30.2543 341.252 30.9377 341.188 31.6072C341.152 32.2502 341.113 32.9771 341.068 33.7879C341.089 34.434 341.133 34.8991 341.202 35.1833C341.271 35.4675 341.398 35.6988 341.585 35.8773C341.796 36.1132 342.124 36.2713 342.568 36.3518C343.042 36.4057 343.475 36.4434 343.866 36.4649L343.983 36.6395L343.988 38.07L343.937 38.2354C343.465 38.1535 342.922 38.0817 342.309 38.0201C341.695 37.9584 341.123 37.9131 340.591 37.884C339.809 37.8411 339.026 37.7982 338.243 37.7554C337.459 37.7405 336.715 37.7418 336.013 37.7595L335.785 37.3263ZM336.033 32.7971C336.124 32.6619 336.217 32.4988 336.312 32.3076C336.435 32.1181 336.517 31.8842 336.561 31.6062L336.966 28.053L336.588 28.0323C335.721 27.9849 334.866 27.9941 334.021 28.06C333.176 28.1259 332.41 28.2943 331.722 28.5651C331.034 28.8359 330.465 29.2394 330.015 29.7756C329.565 30.3118 329.315 31.0272 329.267 31.9219C329.225 32.6767 329.374 33.2878 329.713 33.755C330.08 34.2238 330.585 34.4758 331.228 34.511C331.703 34.537 332.182 34.5071 332.663 34.4213C333.174 34.3091 333.644 34.1666 334.074 33.9938C334.505 33.8211 334.893 33.6321 335.241 33.4268C335.59 33.1935 335.854 32.9836 336.033 32.7971Z" fill="#B0554B"/>
<path d="M351.604 33.1528C350.254 32.4256 349.331 31.4257 348.836 30.1531C348.341 28.8806 348.181 27.5215 348.356 26.0761C348.48 25.0475 348.778 24.0964 349.25 23.2228C349.723 22.3491 350.333 21.619 351.08 21.0325C351.859 20.4215 352.745 19.9785 353.737 19.7035C354.757 19.4319 355.878 19.37 357.102 19.5178C357.824 19.6051 358.525 19.7602 359.203 19.9832C359.909 20.2095 360.511 20.4796 361.009 20.7936C362.18 20.9069 363.272 20.9684 364.286 20.9781C365.328 20.9912 366.309 20.9264 367.229 20.7837L367.417 20.9756L366.747 24.0676L366.514 24.2509L363.427 23.5395L363.37 23.6596C363.754 24.2137 364.021 24.9228 364.171 25.7869C364.32 26.6511 364.349 27.4585 364.259 28.209C364.148 29.1263 363.861 29.9801 363.399 30.7704C362.965 31.564 362.376 32.2402 361.631 32.799C360.89 33.3299 359.996 33.7295 358.948 33.9978C357.904 34.2382 356.728 34.2796 355.422 34.1217C355.255 34.1016 355.033 34.0747 354.755 34.0411C354.508 33.9831 354.315 33.9457 354.176 33.9289C353.68 34.0664 353.286 34.2868 352.996 34.5901C352.733 34.8968 352.589 35.1614 352.562 35.3838C352.488 35.9953 353.094 36.4634 354.38 36.788L358.375 37.6937C359.278 37.9157 360.103 38.2127 360.848 38.5847C361.62 38.9601 362.27 39.4194 362.796 39.9625C363.354 40.4811 363.761 41.0803 364.018 41.7599C364.271 42.4674 364.345 43.252 364.241 44.1137C364.143 44.9198 363.865 45.7041 363.407 46.4666C362.944 47.2569 362.313 47.928 361.513 48.4801C360.717 49.0043 359.656 49.3837 358.33 49.6184C357.004 49.8531 355.507 49.8697 353.839 49.6682C352.338 49.4868 351.052 49.1622 349.98 48.6942C348.933 48.2575 348.068 47.7158 347.385 47.0691C346.726 46.4537 346.258 45.7766 345.98 45.038C345.699 44.3272 345.603 43.6104 345.69 42.8877C345.831 41.7202 346.332 40.7231 347.194 39.8964C348.079 39.101 349.142 38.5947 350.381 38.3778L350.438 38.2577C349.801 37.9269 349.296 37.5557 348.922 37.1439C348.58 36.7077 348.443 36.2117 348.51 35.6557C348.597 34.933 348.96 34.3845 349.597 34.0102C350.234 33.636 350.897 33.4058 351.584 33.3196L351.604 33.1528ZM355.853 31.2547C356.409 31.3219 356.909 31.2695 357.352 31.0975C357.824 30.9288 358.235 30.6823 358.584 30.3578C358.933 30.0334 359.206 29.6433 359.402 29.1875C359.63 28.7073 359.775 28.2032 359.839 27.675C359.906 27.119 359.89 26.553 359.79 25.9769C359.691 25.4008 359.515 24.8719 359.263 24.3902C359.014 23.8807 358.67 23.4584 358.231 23.1233C357.796 22.7604 357.272 22.542 356.66 22.4682C356.077 22.3976 355.56 22.4762 355.109 22.7038C354.662 22.9036 354.26 23.1935 353.904 23.5735C353.576 23.9569 353.31 24.4043 353.107 24.9156C352.904 25.427 352.773 25.9328 352.712 26.4332C352.649 26.9614 352.654 27.4979 352.729 28.0429C352.832 28.5912 353.012 29.0923 353.267 29.5462C353.522 30.0001 353.857 30.379 354.272 30.683C354.714 30.9902 355.241 31.1808 355.853 31.2547ZM353.435 40.0583C352.82 40.0122 352.279 40.0596 351.81 40.2004C351.342 40.3413 350.937 40.5461 350.594 40.8149C350.248 41.1116 349.97 41.4305 349.759 41.7717C349.573 42.1441 349.458 42.511 349.415 42.8723C349.317 43.6785 349.725 44.3905 350.637 45.0084C351.546 45.6541 352.835 46.0777 354.503 46.2793C356.004 46.4606 357.299 46.3633 358.388 45.9872C359.473 45.6389 360.073 44.9922 360.188 44.047C360.251 43.5189 360.178 43.0729 359.968 42.7091C359.759 42.3453 359.459 42.027 359.069 41.7542C358.675 41.5093 358.221 41.2993 357.706 41.1243C357.219 40.9526 356.715 40.8071 356.194 40.6877L353.435 40.0583Z" fill="#B0554B"/>
<path d="M379.174 43.1368C378.98 43.1035 378.693 43.0396 378.312 42.9453C377.93 42.851 377.521 42.7519 377.084 42.648C376.643 42.5717 376.231 42.4864 375.85 42.3921C375.464 42.3254 375.174 42.2753 374.981 42.2419L372.746 41.8558C372.553 41.8224 372.249 41.77 371.835 41.6985C371.444 41.6593 371.028 41.6016 370.587 41.5254C370.168 41.4814 369.749 41.4375 369.331 41.3936C368.94 41.3545 368.648 41.3182 368.454 41.2848L368.442 41.1121L368.768 39.7193L368.92 39.5752C369.334 39.6467 369.764 39.7068 370.21 39.7555C370.661 39.7766 371.016 39.6958 371.275 39.5132C371.502 39.3534 371.683 39.129 371.818 38.8398C371.953 38.5506 372.096 38.1348 372.246 37.5925C372.307 37.4041 372.355 37.2134 372.388 37.0203C372.449 36.8319 372.498 36.6273 372.537 36.4066C372.602 36.1906 372.661 35.9309 372.714 35.6274C372.766 35.3239 372.831 34.9514 372.907 34.51L373.715 29.8332C373.805 29.309 373.877 28.8951 373.929 28.5916C373.987 28.2606 374.02 27.9823 374.031 27.7568C374.069 27.536 374.089 27.3405 374.09 27.1702C374.123 26.9771 374.147 26.7539 374.163 26.5009C374.155 26.2154 374.118 25.939 374.05 25.6716C373.983 25.4042 373.915 25.222 373.846 25.1249C373.632 24.7185 373.323 24.452 372.919 24.3253C372.515 24.1986 372.092 24.0972 371.65 24.0209L371.513 23.8267L371.756 22.4196L371.943 22.324L374.054 22.6887C374.689 22.7984 375.365 22.9151 376.082 23.0391C376.804 23.1354 377.448 23.1899 378.015 23.2025L379.499 23.2458L379.611 24.0751C379.537 24.1759 379.451 24.3457 379.353 24.5845C379.287 24.8005 379.217 25.044 379.141 25.3151C379.098 25.5635 379.039 25.8232 378.964 26.0943C378.921 26.3427 378.885 26.5496 378.857 26.7152C378.819 26.9359 378.769 27.1404 378.708 27.3288C378.68 27.4944 378.644 27.7013 378.601 27.9496C378.563 28.1703 378.499 28.4577 378.409 28.8116C378.347 29.1703 378.271 29.6117 378.181 30.136L377.38 34.7713C377.284 35.3231 377.206 35.7784 377.144 36.137C377.114 36.4729 377.078 36.765 377.035 37.0133C377.02 37.2664 376.993 37.5033 376.955 37.724C376.949 37.922 376.938 38.1474 376.923 38.4005C376.878 38.9895 376.857 39.4405 376.86 39.7535C376.895 40.0437 377.006 40.3045 377.194 40.5358C377.376 40.7946 377.656 40.985 378.033 41.1069C378.442 41.206 378.853 41.2913 379.267 41.3628L379.438 41.6055L379.285 42.9856L379.174 43.1368ZM375.184 16.1496C375.241 15.8185 375.367 15.4993 375.563 15.1921C375.758 14.8848 376.001 14.6285 376.292 14.423C376.588 14.19 376.9 14.0308 377.227 13.9453C377.587 13.8369 377.946 13.8137 378.305 13.8757C378.994 13.9949 379.565 14.3918 380.017 15.0666C380.501 15.7185 380.683 16.3894 380.564 17.0792C380.502 17.4379 380.36 17.7684 380.137 18.0709C379.947 18.3506 379.692 18.5908 379.373 18.7914C379.082 18.9968 378.759 19.1399 378.404 19.2207C378.049 19.3014 377.706 19.3132 377.375 19.256C376.658 19.132 376.082 18.7627 375.649 18.1479C375.215 17.5331 375.06 16.867 375.184 16.1496Z" fill="#B0554B"/>
<path d="M392.208 29.6627C393.115 28.6091 394.206 27.814 395.481 27.2775C396.756 26.741 398.13 26.6443 399.603 26.9876C400.448 27.1847 401.254 27.4876 402.021 27.8965C402.789 28.3054 403.445 28.8179 403.992 29.434C404.565 30.0565 404.985 30.7867 405.249 31.6247C405.547 32.4417 405.65 33.357 405.558 34.3705C405.474 35.0985 405.34 35.858 405.156 36.6487C404.999 37.4459 404.828 38.2399 404.644 39.0307C404.455 39.9642 404.269 40.8263 404.084 41.6171C403.906 42.3806 403.709 43.226 403.493 44.1531C403.347 44.7803 403.304 45.2734 403.364 45.6324C403.457 45.9705 403.601 46.2195 403.793 46.3795C404.055 46.613 404.343 46.7952 404.658 46.926C405 47.0632 405.389 47.1826 405.825 47.2843L405.91 47.4765L405.667 48.8863L405.547 49.0309C404.987 48.8428 404.356 48.6525 403.653 48.46C402.978 48.2738 402.313 48.1044 401.659 47.9519C401.004 47.7993 400.35 47.6467 399.695 47.4942C399.034 47.3689 398.411 47.2667 397.826 47.1878L397.73 46.303C397.895 45.9675 398.087 45.4517 398.307 44.7554C398.554 44.0655 398.742 43.5056 398.871 43.0756C399.167 42.0521 399.434 41.0936 399.671 40.2001C399.908 39.3066 400.109 38.5053 400.274 37.7963C400.42 37.1692 400.566 36.4843 400.71 35.7416C400.854 34.999 400.908 34.336 400.872 33.7524C400.857 32.829 400.557 32.0833 399.97 31.5153C399.417 30.9264 398.705 30.5303 397.832 30.3269C397.014 30.1362 396.229 30.1113 395.478 30.2524C394.726 30.3934 394.054 30.6249 393.461 30.9467C392.902 31.2477 392.433 31.5982 392.052 31.9982C391.671 32.3982 391.439 32.7754 391.357 33.1299L390.375 37.343C390.247 37.8883 390.143 38.3383 390.06 38.6928C389.984 39.02 389.917 39.3063 389.86 39.5517C389.83 39.8035 389.789 40.0385 389.738 40.2566C389.721 40.4539 389.698 40.6784 389.668 40.9302C389.589 41.5155 389.596 41.9772 389.69 42.3153C389.817 42.6325 389.968 42.912 390.141 43.1537C390.308 43.4227 390.536 43.6195 390.823 43.7439C391.117 43.8411 391.468 43.9374 391.877 44.0328L392.034 44.2849L391.801 45.6538L391.681 45.7984C391.49 45.7539 391.207 45.6735 390.832 45.5572C390.456 45.441 390.053 45.3183 389.624 45.1894C389.187 45.0876 388.781 44.9787 388.406 44.8624C388.024 44.7734 387.738 44.7066 387.547 44.6621L385.297 44.1377C385.106 44.0932 384.806 44.0233 384.397 43.9279C384.009 43.8662 383.597 43.7845 383.161 43.6828C382.745 43.6147 382.33 43.5466 381.915 43.4785C381.527 43.4168 381.237 43.3637 381.046 43.3192L381.043 43.146L381.449 41.7744L381.61 41.6394C382.047 41.7411 382.431 41.8164 382.765 41.8655C383.132 41.8936 383.45 41.824 383.719 41.6567C383.955 41.5103 384.189 41.3062 384.423 41.0444C384.656 40.7826 384.864 40.3853 385.046 39.8527C385.117 39.6681 385.175 39.4804 385.22 39.2895C385.292 39.105 385.353 38.9037 385.404 38.6855C385.482 38.4737 385.556 38.2179 385.626 37.9179C385.696 37.6179 385.782 37.2498 385.883 36.8135L386.866 32.6005C386.986 32.0824 387.088 31.6461 387.171 31.2916C387.253 30.9371 387.313 30.6203 387.349 30.3413C387.413 30.0686 387.456 29.82 387.48 29.5955C387.531 29.3773 387.571 29.1424 387.601 28.8906C387.61 28.6052 387.589 28.3271 387.537 28.0562C387.485 27.7854 387.428 27.5995 387.365 27.4986C387.175 27.0806 386.882 26.7966 386.485 26.6467C386.089 26.4968 385.673 26.371 385.236 26.2693L385.111 26.0675L385.435 24.6768L385.627 24.5922L387.713 25.0786C388.341 25.2248 389.009 25.3805 389.718 25.5458C390.46 25.6902 391.114 25.785 391.678 25.8303L393.158 25.9596L393.222 26.7939C392.934 27.043 392.699 27.4339 392.517 27.9666C392.369 28.4783 392.232 29.0069 392.104 29.5523L392.208 29.6627Z" fill="#B0554B"/>
<path d="M428.483 44.8531L427.295 45.2717C425.852 44.818 424.419 44.3818 422.995 43.9631C421.598 43.5529 420.165 43.1167 418.696 42.6546L415.41 41.621C415.325 41.7996 415.253 41.9823 415.194 42.1693C415.143 42.3296 415.093 42.4898 415.043 42.6501C414.824 43.3445 414.726 44.0768 414.748 44.8469C414.77 45.6169 414.946 46.3622 415.277 47.0828C415.643 47.785 416.172 48.4358 416.864 49.0351C417.565 49.6077 418.489 50.0747 419.638 50.436C420.466 50.6965 421.368 50.8627 422.343 50.9347C423.353 50.9885 424.318 50.9544 425.237 50.8325L425.83 51.3273L425.376 52.7696L424.837 53.0842C424.036 53.39 422.937 53.5725 421.538 53.6316C420.167 53.6992 418.76 53.5061 417.318 53.0523C415.902 52.607 414.678 51.9724 413.646 51.1486C412.649 50.3065 411.857 49.3237 411.271 48.2001C410.712 47.0849 410.377 45.8641 410.266 44.5376C410.182 43.2196 410.366 41.8394 410.82 40.3971C411.282 38.928 411.943 37.6682 412.802 36.6175C413.661 35.5669 414.639 34.7444 415.735 34.1502C416.859 33.5644 418.057 33.2076 419.33 33.0797C420.63 32.9602 421.934 33.1064 423.243 33.5181C423.938 33.7366 424.683 34.0738 425.479 34.5296C426.301 34.9939 427.029 35.6191 427.662 36.4054C428.304 37.165 428.794 38.1264 429.133 39.2896C429.48 40.4261 429.529 41.8067 429.282 43.4315L428.483 44.8531ZM422.338 36.5355C421.029 36.1238 419.848 36.1925 418.795 36.7417C417.776 37.2726 416.997 38.0253 416.455 38.9997L418.458 39.63C419.393 39.924 420.319 40.2006 421.235 40.4596C422.16 40.6919 423.09 40.955 424.025 41.2491C424.372 41.3584 424.655 41.3447 424.875 41.2082C425.102 41.0449 425.249 40.8564 425.317 40.6428C425.569 39.8415 425.396 39.0386 424.798 38.234C424.199 37.4294 423.38 36.8633 422.338 36.5355Z" fill="#B0554B"/>
<path d="M457.308 49.5236L453.043 47.7474C452.419 49.2466 451.825 50.637 451.26 51.9187C450.733 53.1852 450.27 54.2967 449.872 55.2531C449.484 56.1836 449.154 56.9407 448.88 57.5245C448.633 58.119 448.482 58.4809 448.428 58.6101C448.008 59.6182 447.922 60.371 448.17 60.8685C448.418 61.366 448.8 61.7223 449.317 61.9376C449.705 62.0991 450.161 62.2433 450.684 62.3703C451.207 62.4973 451.664 62.5661 452.054 62.5768L452.109 63.1002L451.188 64.2182C450.329 64.3153 449.481 64.3111 448.646 64.2058C447.825 64.137 447.105 63.9734 446.484 63.7151C444.908 63.0584 443.934 62.2283 443.563 61.2247C443.193 60.2211 443.244 59.1506 443.718 58.0133C443.815 57.7806 444.016 57.3337 444.322 56.6724C444.638 55.9853 445.025 55.1301 445.481 54.1069C445.948 53.0579 446.48 51.8538 447.076 50.4947C447.673 49.1355 448.305 47.6546 448.972 46.052L446.956 45.2124L446.881 44.9539L447.592 43.2479L447.812 43.1574L450.054 43.4543C450.398 42.6271 450.722 41.7763 451.026 40.9018C451.366 40.0122 451.682 39.143 451.975 38.2944L452.343 38.1748L452.902 38.3621C453.083 38.4374 453.334 38.5267 453.655 38.6301C454.002 38.7442 454.362 38.8636 454.734 38.9885C455.118 39.0875 455.475 39.1757 455.807 39.2532C456.165 39.3415 456.432 39.392 456.608 39.4049L456.893 39.7053C456.494 40.2977 456.03 41.1206 455.501 42.1739C454.982 43.2014 454.523 44.1933 454.125 45.1497L458.487 46.6932L458.616 46.929L457.583 49.4104L457.308 49.5236Z" fill="#B0554B"/>
<path d="M467.975 72.3009C468.235 72.0233 468.52 71.6328 468.829 71.1294C469.138 70.626 469.404 70.1793 469.626 69.7893C470.144 68.8584 470.65 67.9214 471.143 66.9782C471.637 66.035 472.043 65.2365 472.364 64.5827C472.647 64.0044 472.942 63.3696 473.25 62.6783C473.557 61.9871 473.759 61.3531 473.854 60.7763C474.047 59.8731 473.909 59.0728 473.44 58.3753C472.983 57.6528 472.353 57.0944 471.548 56.7002C470.819 56.343 470.072 56.1487 469.308 56.1174C468.569 56.0984 467.875 56.1792 467.225 56.3598C466.575 56.5404 466.02 56.7828 465.559 57.0871C465.098 57.3914 464.794 57.6944 464.646 57.9962C464.018 59.2786 463.519 60.2969 463.15 61.0513C462.792 61.7805 462.497 62.384 462.263 62.8617C462.054 63.3518 461.869 63.7603 461.709 64.0872C461.587 64.4012 461.446 64.7843 461.287 65.2364C461.078 65.7891 460.982 66.2407 460.997 66.5912C461.025 66.9166 461.096 67.2165 461.211 67.4911C461.314 67.7908 461.491 68.0335 461.743 68.2193C462.007 68.3799 462.328 68.5526 462.705 68.7374L462.801 69.0184L462.267 70.3L462.118 70.4139C461.942 70.3277 461.684 70.1858 461.344 69.9882C461.004 69.7906 460.64 69.5807 460.25 69.3585C459.847 69.1614 459.476 68.9641 459.136 68.7665C458.784 68.594 458.52 68.4647 458.344 68.3785L456.308 67.3807C456.132 67.2945 455.855 67.159 455.478 66.9743C455.114 66.827 454.73 66.6548 454.328 66.4577C453.938 66.2981 453.549 66.1385 453.159 65.9788C452.795 65.8315 452.525 65.7148 452.349 65.6286L452.385 65.4592L453.089 64.2138L453.276 64.1183C453.678 64.3154 454.036 64.4753 454.35 64.5979C454.702 64.7078 455.027 64.7114 455.327 64.6088C455.614 64.5313 455.889 64.385 456.15 64.17C456.411 63.955 456.69 63.6084 456.987 63.1301C457.16 62.8407 457.333 62.5513 457.506 62.2619C457.679 61.9724 457.864 61.6266 458.061 61.2242C458.295 60.8091 458.548 60.3249 458.819 59.7717C459.102 59.1934 459.441 58.5019 459.835 57.6972L463.9 49.3994C464.38 48.4187 464.787 47.5889 465.119 46.91C465.452 46.2311 465.723 45.6466 465.932 45.1565C466.178 44.6536 466.381 44.2074 466.541 43.8179C466.738 43.4156 466.916 43.0197 467.076 42.6302C467.174 42.3664 467.197 42.097 467.144 41.8219C467.129 41.534 467.103 41.3339 467.064 41.2215C466.948 40.8217 466.695 40.4794 466.304 40.1946C465.951 39.8969 465.574 39.6496 465.171 39.4525L465.094 39.2277L465.704 37.983L465.929 37.9061L468.041 38.9407C468.619 39.224 469.236 39.5258 469.889 39.8461C470.555 40.1412 471.158 40.3742 471.698 40.5451L473.111 41.0032L472.986 41.8307C472.874 41.9318 472.732 42.127 472.559 42.4165C472.398 42.6807 472.219 42.9827 472.021 43.3225C471.836 43.637 471.663 43.9578 471.503 44.2846C471.355 44.5864 471.238 44.8253 471.152 45.0013C470.832 45.655 470.437 46.3971 469.968 47.2274C469.524 48.07 469.025 49.0571 468.471 50.1886C467.954 51.2447 467.479 52.1815 467.047 52.999C466.641 53.8287 466.32 54.4199 466.085 54.7725L466.161 54.9033C466.685 54.5985 467.259 54.3183 467.883 54.0628C468.544 53.7945 469.219 53.5949 469.906 53.464C470.631 53.3204 471.351 53.2832 472.066 53.3525C472.817 53.409 473.545 53.6097 474.249 53.9546C475.029 54.3365 475.746 54.8127 476.402 55.3834C477.058 55.9541 477.583 56.601 477.977 57.3241C478.396 58.0595 478.647 58.8526 478.729 59.7035C478.811 60.5543 478.693 61.4632 478.376 62.43C478.131 63.1207 477.799 63.8935 477.38 64.7485C476.999 65.5906 476.679 66.2756 476.42 66.8037L474.185 71.3675C473.901 71.9459 473.755 72.4354 473.746 72.8362C473.749 73.2119 473.795 73.4995 473.884 73.6991C474.012 74.0112 474.24 74.2785 474.567 74.5013C474.907 74.6989 475.278 74.8962 475.68 75.0933L475.719 75.2996L475.166 76.6189L475.017 76.7329C474.514 76.4239 473.954 76.1029 473.338 75.7698C472.721 75.4367 472.099 75.1162 471.47 74.8083C470.188 74.1801 468.987 73.6388 467.869 73.1846L467.975 72.3009Z" fill="#B0554B"/>
<path d="M499.5 78.4792L498.248 78.6166C496.946 77.8468 495.65 77.0961 494.358 76.3646C493.091 75.6473 491.795 74.8967 490.469 74.1125L487.505 72.359C487.381 72.5134 487.269 72.675 487.17 72.8437C487.084 72.9882 486.998 73.1328 486.913 73.2774C486.542 73.904 486.28 74.5947 486.126 75.3496C485.972 76.1045 485.975 76.8704 486.133 77.6473C486.33 78.4144 486.697 79.1685 487.235 79.9095C487.787 80.6264 488.581 81.2913 489.617 81.9044C490.364 82.3463 491.204 82.7133 492.138 83.0052C493.11 83.2873 494.057 83.4735 494.979 83.5638L495.444 84.1804L494.674 85.4817L494.078 85.6655C493.228 85.7812 492.116 85.7089 490.741 85.4485C489.39 85.2024 488.064 84.6944 486.763 83.9245C485.486 83.1689 484.438 82.2726 483.62 81.2356C482.84 80.1888 482.293 79.0517 481.978 77.8244C481.687 76.6113 481.639 75.3462 481.832 74.0293C482.05 72.7265 482.544 71.4245 483.313 70.1232C484.098 68.7978 485.027 67.7211 486.103 66.8933C487.178 66.0655 488.317 65.487 489.521 65.1578C490.748 64.8428 491.996 64.7679 493.265 64.9329C494.558 65.1121 495.794 65.5511 496.975 66.2496C497.602 66.6203 498.251 67.1181 498.922 67.743C499.618 68.3822 500.184 69.1566 500.622 70.0663C501.074 70.9518 501.333 71.9995 501.398 73.2092C501.477 74.3948 501.212 75.7506 500.602 77.2767L499.5 78.4792ZM495.408 68.9821C494.227 68.2835 493.061 68.0819 491.91 68.3771C490.798 68.6626 489.867 69.2182 489.119 70.044L490.926 71.1132C491.77 71.6122 492.608 72.092 493.442 72.5526C494.29 72.9892 495.135 73.4569 495.979 73.9559C496.292 74.1412 496.571 74.1923 496.815 74.1092C497.074 74.0019 497.26 73.8519 497.374 73.6591C497.802 72.9362 497.816 72.1149 497.417 71.1954C497.017 70.2759 496.347 69.5381 495.408 68.9821Z" fill="#B0554B"/>
<path d="M524.064 80.1678C524.502 79.4822 524.724 78.949 524.727 78.5682C524.753 78.2041 524.726 77.8878 524.646 77.6194C524.577 77.2894 524.394 76.9964 524.096 76.7404C523.798 76.4844 523.469 76.223 523.109 75.9561L523.04 75.6961L523.89 74.3391L524.057 74.2542C524.215 74.3709 524.465 74.574 524.808 74.8633C525.151 75.1527 525.506 75.4504 525.871 75.7564C526.237 76.0625 526.591 76.3602 526.934 76.6495C527.278 76.9389 527.528 77.1419 527.685 77.2587L533.555 81.6119C533.87 81.8455 534.331 82.1874 534.938 82.6377C535.585 83.0822 536.242 83.5351 536.911 83.9963C537.58 84.4575 538.173 84.8799 538.691 85.2636C539.225 85.6247 539.548 85.847 539.66 85.9304L539.612 86.4178L536.216 90.6446L534.698 89.5187L534.663 89.2837C534.935 88.823 535.118 88.4356 535.212 88.1215C535.328 87.8241 535.259 87.4941 535.005 87.1314C534.751 86.7688 534.272 86.3094 533.569 85.7531C532.889 85.2136 531.919 84.4768 530.659 83.5428L528.77 82.1417L527.727 83.4073C527.56 83.6322 527.39 83.8376 527.218 84.0233C527.084 84.2032 526.915 84.4085 526.709 84.6392C526.525 84.8866 526.28 85.1932 525.974 85.5588C525.708 85.9187 524.957 86.9307 523.723 88.595C524.279 88.9728 524.796 89.3564 525.275 89.7458C525.792 90.1295 526.261 90.4601 526.683 90.7379C527.127 91.0323 527.523 91.2738 527.871 91.4623C528.236 91.6283 528.536 91.6939 528.771 91.659C529.123 91.6067 529.466 91.3557 529.8 90.9059L530.094 90.8623L531.392 91.7205L531.477 91.8881C531.238 92.1638 531.023 92.4057 530.834 92.614C530.661 92.7997 530.489 92.9854 530.316 93.1712C530.166 93.3736 530.005 93.5676 529.832 93.7534C529.682 93.9558 529.507 94.1919 529.307 94.4618C528.906 95.0016 528.534 95.5272 528.19 96.0386C527.884 96.5443 527.554 97.0837 527.199 97.6568L527.014 97.6242L525.782 96.606L525.722 96.4047C526.156 95.82 526.368 95.298 526.36 94.8389C526.331 94.643 526.196 94.4029 525.953 94.1186C525.711 93.8343 525.384 93.5225 524.974 93.1831C524.602 92.8379 524.147 92.4651 523.607 92.0648C523.09 91.6812 522.561 91.2893 522.021 90.889L520.47 92.9805C519.87 93.7902 519.378 94.4536 518.994 94.9709C518.627 95.4657 518.319 95.8818 518.068 96.2191C517.841 96.5732 517.635 96.8739 517.452 97.1213C517.307 97.3628 517.146 97.6269 516.969 97.9135C516.53 98.599 516.309 99.1322 516.305 99.5131C516.324 99.9106 516.374 100.244 516.454 100.512C516.523 100.842 516.74 101.16 517.105 101.466C517.494 101.789 517.868 102.083 518.227 102.35L518.296 102.61L517.447 103.967L517.279 104.052C517.122 103.936 516.849 103.716 516.461 103.393C516.095 103.087 515.707 102.764 515.296 102.425C514.886 102.086 514.486 101.754 514.098 101.432C513.732 101.126 513.471 100.914 513.313 100.798L511.323 99.3215C511.166 99.2047 510.899 99.0242 510.522 98.7798C510.146 98.5354 509.758 98.2827 509.359 98.0216C508.96 97.7606 508.572 97.5079 508.196 97.2635C507.819 97.0191 507.552 96.8385 507.395 96.7218L507.427 96.5368L508.479 95.3299L508.748 95.3201C509.108 95.5869 509.453 95.8259 509.785 96.0369C510.133 96.2254 510.467 96.316 510.786 96.3087C511.083 96.2847 511.401 96.2074 511.742 96.0768C512.106 95.9628 512.543 95.6076 513.055 95.0113C513.172 94.8539 513.306 94.6739 513.456 94.4715C513.645 94.2633 513.856 94.0018 514.09 93.6869C514.346 93.3887 514.641 93.0147 514.974 92.5649C515.308 92.1151 515.725 91.5529 516.225 90.8782L520.303 85.3793C520.887 84.5922 521.379 83.9287 521.779 83.389C522.18 82.8492 522.51 82.3798 522.771 81.9808C523.055 81.5985 523.286 81.264 523.463 80.9775C523.663 80.7076 523.864 80.4377 524.064 80.1678Z" fill="#B0554B"/>
<path d="M541.406 118.863C540.044 119.273 538.693 119.395 537.352 119.229C536.011 119.062 534.697 118.418 533.41 117.295C532.819 116.779 532.304 116.199 531.863 115.555C531.443 114.928 531.139 114.255 530.951 113.533C530.784 112.83 530.753 112.078 530.857 111.277C530.979 110.455 531.289 109.611 531.785 108.743C531.909 108.516 532.051 108.269 532.211 108C532.392 107.749 532.629 107.435 532.921 107.058C533.252 106.679 533.637 106.216 534.076 105.67C534.555 105.121 535.144 104.446 535.843 103.644L538.328 100.796C538.531 100.564 538.68 100.286 538.777 99.9614C538.874 99.6373 538.919 99.416 538.911 99.2974C538.921 98.8602 538.786 98.4824 538.506 98.1641C538.226 97.8458 537.918 97.5394 537.58 97.2449L537.596 97.0355L538.534 95.9594L538.712 95.9473L540.263 97.3001C540.748 97.7235 541.265 98.1744 541.814 98.653C542.381 99.1105 542.903 99.4916 543.38 99.7965L544.626 100.605L544.291 101.372C544.175 101.419 544.006 101.55 543.782 101.763C543.577 101.956 543.353 102.17 543.111 102.405C542.869 102.639 542.647 102.873 542.445 103.105C542.242 103.337 542.086 103.516 541.975 103.643C541.736 103.917 541.431 104.246 541.06 104.628C540.729 105.008 540.369 105.4 539.979 105.803C539.63 106.204 539.279 106.585 538.926 106.947C538.595 107.326 538.319 107.643 538.098 107.896C537.619 108.445 537.153 109.022 536.698 109.629C536.261 110.214 535.904 110.794 535.626 111.369C535.193 112.291 535.03 113.116 535.14 113.843C535.288 114.567 535.753 115.27 536.533 115.951C537.166 116.503 537.818 116.885 538.487 117.097C539.177 117.328 539.831 117.452 540.447 117.47C541.064 117.487 541.635 117.429 542.162 117.293C542.707 117.137 543.131 116.95 543.433 116.731L546.194 113.566C547.041 112.595 547.673 111.828 548.091 111.263C548.53 110.717 548.857 110.278 549.073 109.946C549.27 109.635 549.4 109.358 549.463 109.116C549.547 108.892 549.585 108.72 549.577 108.602C549.565 108.146 549.399 107.741 549.077 107.386C548.755 107.031 548.489 106.761 548.278 106.577L548.262 106.34L549.2 105.264L549.41 105.279L549.979 105.776C550.19 105.96 550.465 106.2 550.802 106.494C551.161 106.807 551.53 107.129 551.91 107.461C552.308 107.771 552.687 108.082 553.045 108.395C553.422 108.687 553.756 108.922 554.046 109.101L555.292 109.909L554.957 110.676C554.318 111.196 553.545 111.933 552.637 112.888C552.156 113.397 551.758 113.811 551.442 114.131C551.166 114.447 550.936 114.711 550.752 114.922C550.568 115.133 550.42 115.302 550.31 115.428C550.218 115.534 550.126 115.639 550.034 115.745L547.77 118.34C546.757 119.5 545.896 120.551 545.187 121.493C544.879 121.931 544.647 122.304 544.489 122.612C544.35 122.899 544.3 123.19 544.34 123.485C544.383 123.82 544.512 124.119 544.729 124.382C544.964 124.624 545.26 124.901 545.619 125.214L545.635 125.451L544.76 126.582L544.614 126.622C544.249 126.23 543.887 125.858 543.525 125.506C543.146 125.174 542.702 124.788 542.196 124.346C541.69 123.904 541.152 123.435 540.582 122.938C539.994 122.462 539.418 122.015 538.853 121.597L539.216 120.798C539.481 120.622 539.812 120.371 540.206 120.046C540.64 119.719 541.053 119.373 541.445 119.009L541.406 118.863Z" fill="#B0554B"/>
<path d="M566.874 125.039L563.598 121.782C562.452 122.933 561.376 123.995 560.369 124.968C559.402 125.941 558.553 126.795 557.823 127.53C557.112 128.244 556.519 128.82 556.045 129.257C555.591 129.714 555.315 129.992 555.216 130.091C554.446 130.865 554.082 131.53 554.123 132.084C554.164 132.638 554.383 133.113 554.78 133.508C555.078 133.804 555.445 134.11 555.882 134.425C556.318 134.741 556.715 134.977 557.072 135.135L556.925 135.64L555.65 136.327C554.817 136.091 554.034 135.767 553.301 135.353C552.567 134.979 551.962 134.555 551.485 134.081C550.274 132.877 549.687 131.74 549.724 130.671C549.76 129.602 550.213 128.63 551.082 127.757C551.259 127.578 551.615 127.24 552.148 126.744C552.701 126.228 553.382 125.582 554.192 124.808C555.021 124.013 555.969 123.1 557.035 122.067C558.101 121.035 559.246 119.903 560.47 118.672L558.922 117.132L558.951 116.865L560.254 115.554L560.491 115.554L562.455 116.677C563.086 116.041 563.708 115.376 564.32 114.682C564.971 113.987 565.593 113.302 566.185 112.627L566.571 112.656L567.018 113.041C567.157 113.179 567.355 113.356 567.613 113.573C567.891 113.81 568.179 114.057 568.477 114.313C568.794 114.55 569.092 114.767 569.37 114.964C569.667 115.181 569.895 115.329 570.054 115.408L570.203 115.794C569.611 116.191 568.87 116.777 567.981 117.552C567.112 118.307 566.312 119.052 565.582 119.786L569.035 122.865L569.066 123.132L567.171 125.038L566.874 125.039Z" fill="#B0554B"/>
<path d="M569.748 147.718C568.346 147.952 566.99 147.901 565.681 147.565C564.372 147.23 563.151 146.423 562.017 145.146C561.496 144.56 561.058 143.919 560.703 143.224C560.366 142.549 560.15 141.842 560.055 141.103C559.979 140.384 560.043 139.634 560.248 138.853C560.474 138.053 560.888 137.255 561.491 136.458C561.642 136.248 561.814 136.021 562.008 135.774C562.219 135.549 562.494 135.268 562.831 134.931C563.208 134.596 563.649 134.186 564.154 133.7C564.698 133.217 565.368 132.622 566.164 131.915L568.99 129.406C569.221 129.201 569.404 128.944 569.542 128.635C569.679 128.326 569.751 128.112 569.758 127.993C569.824 127.561 569.738 127.169 569.501 126.818C569.264 126.467 568.997 126.123 568.699 125.788L568.741 125.583L569.809 124.635L569.987 124.645L571.353 126.184C571.781 126.666 572.236 127.179 572.72 127.723C573.224 128.249 573.694 128.693 574.128 129.056L575.261 130.016L574.832 130.734C574.711 130.767 574.526 130.875 574.277 131.058C574.049 131.223 573.8 131.407 573.53 131.609C573.261 131.811 573.01 132.014 572.78 132.219C572.55 132.423 572.372 132.581 572.246 132.693C571.974 132.935 571.63 133.222 571.213 133.554C570.837 133.889 570.429 134.231 569.992 134.582C569.594 134.935 569.198 135.269 568.802 135.583C568.425 135.917 568.111 136.196 567.86 136.419C567.316 136.903 566.779 137.416 566.251 137.96C565.744 138.485 565.316 139.015 564.967 139.55C564.42 140.41 564.154 141.207 564.17 141.942C564.226 142.679 564.597 143.435 565.285 144.21C565.843 144.838 566.44 145.3 567.077 145.595C567.733 145.912 568.365 146.118 568.974 146.214C569.584 146.309 570.158 146.324 570.697 146.257C571.258 146.171 571.702 146.039 572.03 145.86L575.171 143.071C576.134 142.216 576.858 141.535 577.345 141.028C577.849 140.543 578.23 140.149 578.486 139.846C578.721 139.563 578.885 139.305 578.978 139.072C579.09 138.861 579.149 138.696 579.156 138.577C579.203 138.124 579.089 137.701 578.815 137.307C578.541 136.914 578.311 136.613 578.125 136.404L578.139 136.167L579.207 135.218L579.413 135.26L579.915 135.826C580.1 136.035 580.342 136.307 580.64 136.642C580.956 136.998 581.281 137.365 581.616 137.741C581.971 138.1 582.307 138.457 582.623 138.813C582.96 139.15 583.261 139.426 583.526 139.64L584.659 140.6L584.23 141.318C583.529 141.752 582.669 142.386 581.648 143.217C581.106 143.661 580.658 144.021 580.304 144.298C579.99 144.577 579.728 144.809 579.519 144.995C579.31 145.181 579.142 145.33 579.016 145.441C578.912 145.534 578.807 145.627 578.702 145.72L576.127 148.007C574.976 149.029 573.988 149.962 573.164 150.806C572.804 151.201 572.526 151.542 572.33 151.828C572.156 152.095 572.07 152.377 572.072 152.675C572.072 153.012 572.162 153.325 572.343 153.613C572.545 153.883 572.805 154.196 573.121 154.552L573.106 154.789L572.094 155.8L571.944 155.821C571.633 155.386 571.321 154.971 571.007 154.575C570.672 154.199 570.282 153.759 569.836 153.256C569.389 152.754 568.915 152.22 568.413 151.655C567.891 151.108 567.376 150.591 566.869 150.105L567.33 149.359C567.616 149.217 567.975 149.011 568.408 148.739C568.88 148.469 569.334 148.179 569.769 147.868L569.748 147.718Z" fill="#B0554B"/>
<path d="M590.757 155.75C591.35 155.65 591.982 155.555 592.653 155.465C593.341 155.397 594.022 155.388 594.694 155.438C595.367 155.488 596.006 155.634 596.613 155.875C597.237 156.138 597.77 156.559 598.212 157.138C598.348 157.316 598.487 157.544 598.63 157.823C598.811 158.107 598.962 158.397 599.083 158.693C599.22 159.011 599.337 159.326 599.435 159.639C599.533 159.952 599.578 160.217 599.568 160.436L599.546 160.822L595.636 163.175L594.54 161.74C594.756 161.469 594.887 161.087 594.933 160.594C595.018 160.106 594.84 159.573 594.398 158.994C594.007 158.482 593.516 158.117 592.927 157.898C592.359 157.663 591.767 157.533 591.151 157.511C590.534 157.488 589.936 157.558 589.355 157.72C588.796 157.865 588.339 158.073 587.983 158.345L585.68 160.104C584.834 160.75 584.2 161.234 583.777 161.557C583.371 161.903 583.021 162.205 582.727 162.465C582.271 162.884 581.913 163.245 581.653 163.55C581.431 163.86 581.311 164.164 581.291 164.46C581.27 164.617 581.294 164.81 581.363 165.039C581.472 165.274 581.591 165.499 581.722 165.717C581.853 165.934 581.986 166.132 582.122 166.31C582.275 166.51 582.394 166.666 582.479 166.777L582.44 167.071L581.389 167.979L581.205 168.015C581.103 167.881 580.944 167.65 580.728 167.322C580.512 166.993 580.28 166.642 580.03 166.269C579.758 165.913 579.514 165.571 579.299 165.242C579.061 164.931 578.891 164.708 578.789 164.575L577.157 162.439C577.038 162.283 576.851 162.038 576.596 161.704C576.336 161.41 576.07 161.085 575.798 160.729C575.504 160.39 575.218 160.062 574.941 159.745C574.681 159.45 574.491 159.225 574.372 159.07L574.48 158.934L575.666 158.134L575.876 158.132C576.165 158.511 576.448 158.858 576.725 159.175C577.025 159.475 577.331 159.646 577.645 159.688C577.937 159.747 578.231 159.716 578.526 159.596C578.839 159.498 579.313 159.242 579.948 158.827C580.232 158.646 580.596 158.385 581.041 158.045C581.486 157.705 582.109 157.229 582.91 156.617L585.347 154.756C585.814 154.399 586.204 154.102 586.515 153.864C586.849 153.609 587.13 153.377 587.358 153.168C587.602 152.981 587.816 152.799 588 152.624C588.2 152.471 588.403 152.299 588.608 152.106C588.797 151.892 588.957 151.664 589.089 151.422C589.222 151.18 589.296 151 589.312 150.882C589.431 150.439 589.385 150.033 589.175 149.665C588.964 149.298 588.723 148.936 588.451 148.58L588.483 148.344L589.618 147.477L589.82 147.534L590.279 148.135C590.653 148.625 591.137 149.259 591.732 150.038C592.349 150.8 592.912 151.444 593.42 151.972L594.48 153.012L593.998 153.697C593.474 153.887 592.919 154.152 592.334 154.493C591.766 154.856 591.226 155.234 590.714 155.625L590.757 155.75Z" fill="#B0554B"/>
<path d="M604.441 182.591L603.254 182.168C602.419 180.908 601.58 179.666 600.737 178.445C599.91 177.246 599.071 176.005 598.22 174.721L596.318 171.85C596.14 171.935 595.968 172.032 595.805 172.14C595.665 172.233 595.525 172.325 595.385 172.418C594.778 172.82 594.241 173.327 593.773 173.939C593.305 174.551 592.973 175.242 592.777 176.01C592.619 176.786 592.62 177.625 592.781 178.526C592.965 179.412 593.389 180.357 594.054 181.36C594.533 182.084 595.129 182.781 595.842 183.451C596.593 184.129 597.364 184.71 598.154 185.193L598.304 185.951L597.043 186.786L596.426 186.691C595.611 186.425 594.642 185.874 593.519 185.04C592.411 184.229 591.439 183.193 590.604 181.933C589.785 180.696 589.233 179.432 588.95 178.142C588.705 176.86 588.709 175.598 588.961 174.356C589.228 173.138 589.737 171.978 590.485 170.878C591.25 169.8 592.262 168.844 593.522 168.009C594.806 167.159 596.113 166.596 597.441 166.32C598.77 166.045 600.048 166.021 601.274 166.25C602.516 166.502 603.672 166.979 604.741 167.681C605.826 168.407 606.748 169.341 607.505 170.485C607.907 171.092 608.274 171.823 608.605 172.679C608.952 173.557 609.124 174.501 609.121 175.511C609.142 176.505 608.917 177.56 608.448 178.677C608.002 179.779 607.172 180.883 605.957 181.99L604.441 182.591ZM604.902 172.26C604.145 171.116 603.184 170.426 602.02 170.19C600.894 169.961 599.815 170.055 598.78 170.471L599.94 172.222C600.481 173.039 601.026 173.837 601.576 174.615C602.148 175.377 602.705 176.167 603.246 176.984C603.447 177.288 603.676 177.455 603.932 177.487C604.211 177.504 604.444 177.45 604.631 177.326C605.331 176.862 605.702 176.13 605.744 175.128C605.786 174.126 605.505 173.17 604.902 172.26Z" fill="#B0554B"/>
</svg>
