<svg width="774" height="732" viewBox="0 0 774 732" fill="none" xmlns="http://www.w3.org/2000/svg">
<path d="M773.455 367.174C773.455 568.482 600.861 731.674 387.955 731.674C175.049 731.674 2.45477 568.482 2.45477 367.174C2.45477 165.866 175.049 2.67386 387.955 2.67386C600.861 2.67386 773.455 165.866 773.455 367.174Z" fill="#B0554B" fill-opacity="0.75"/>
<path d="M71.3343 308.298C71.2393 308.64 71.0657 309.17 70.8133 309.889C70.5609 310.608 70.2949 311.375 70.0154 312.191C69.7359 313.008 69.4699 313.775 69.2176 314.494C68.9652 315.212 68.7915 315.743 68.6965 316.084L66.7219 323.187C66.6269 323.529 66.502 324.072 66.3473 324.818C66.1925 325.564 66.0242 326.359 65.8423 327.202C65.674 327.997 65.5125 328.767 65.3577 329.513C65.203 330.258 65.0781 330.802 64.9831 331.144L64.6495 331.209L61.9281 330.216L61.737 329.768C61.9405 329.036 62.1536 328.175 62.3762 327.185C62.6124 326.146 62.5963 325.353 62.3279 324.805C62.0948 324.32 61.764 323.807 61.3356 323.267C60.9072 322.727 60.0299 322.194 58.7038 321.668C58.3757 321.524 57.992 321.391 57.5526 321.269C57.078 321.084 56.499 320.897 55.8156 320.707C55.1458 320.468 54.3227 320.213 53.3464 319.942C52.3701 319.67 51.1497 319.331 49.6852 318.924L36.2854 315.199C33.6006 314.452 31.2019 313.812 29.0892 313.277C26.9766 312.742 25.4009 312.357 24.3622 312.121L24.1383 312.926C23.6226 314.781 23.2195 316.325 22.9291 317.559C22.5898 318.78 22.3672 319.77 22.2613 320.529C22.1065 321.275 22.0237 321.857 22.0127 322.274C22.0154 322.643 22.0695 322.921 22.1753 323.108C22.2701 323.713 22.5385 324.261 22.9804 324.752C23.4224 325.243 23.9959 325.639 24.701 325.94L24.9125 326.315L24.0371 329.463L14.3678 326.223L13.7902 325.747L13.6926 325.246C13.9477 324.896 14.3316 324.083 14.8445 322.806C15.3085 321.515 15.7821 320.095 16.2652 318.547C16.7483 316.998 17.211 315.523 17.6534 314.121C18.0605 312.656 18.3523 311.607 18.5287 310.972L21.0936 301.746C21.27 301.111 21.555 300.086 21.9486 298.671C22.3069 297.193 22.6788 295.666 23.0643 294.09C23.4497 292.514 23.7768 291.054 24.0456 289.709C24.2656 288.35 24.3566 287.455 24.3188 287.024L24.6606 286.646L25.401 286.536L35.3758 288.678L34.4801 291.9L34.1057 292.111C33.3464 292.005 32.6507 292.048 32.0187 292.241C31.3868 292.433 30.8741 292.764 30.4808 293.233C30.2448 293.325 30.0237 293.553 29.8175 293.917C29.576 294.218 29.3291 294.727 29.0768 295.446C28.8244 296.165 28.5285 297.134 28.1893 298.355C27.8636 299.526 27.4429 301.039 26.9272 302.894L26.7032 303.7C27.8612 304.074 29.4098 304.557 31.3488 305.149C33.3014 305.692 35.669 306.35 38.4514 307.124L50.46 310.462C52.2174 310.951 53.6574 311.351 54.7802 311.663C55.8541 311.962 56.7572 312.213 57.4894 312.416C58.2352 312.571 58.8766 312.723 59.4136 312.872C59.9153 312.959 60.4658 313.06 61.0652 313.174C62.508 313.47 63.5589 313.473 64.218 313.183C64.8771 312.893 65.4074 312.593 65.8089 312.284C66.0584 312.143 66.2795 311.915 66.4721 311.601C66.6783 311.237 66.8669 310.843 67.0379 310.417C67.2088 309.991 67.3554 309.559 67.4775 309.119C67.6132 308.631 67.7354 308.192 67.8439 307.801L68.2386 307.517L71.0822 308.07L71.3343 308.298Z" fill="#FFFCF3"/>
<path d="M36.5505 257.104L73.4249 258.401C74.7693 258.471 75.9073 258.509 76.8387 258.515C77.7702 258.521 78.5555 258.549 79.1945 258.597C79.8532 258.599 80.3988 258.608 80.8314 258.624C81.2369 258.575 81.6092 258.539 81.9483 258.516C83.3515 258.446 84.4978 258.267 85.3872 257.981C86.2494 257.629 86.9617 257.241 87.524 256.817C88.0591 256.328 88.4775 255.789 88.7791 255.201C89.0807 254.613 89.3589 254.016 89.6138 253.408L90.0411 253.176L92.7924 254.083L93.0139 254.341C92.8767 254.668 92.6474 255.148 92.3263 255.783C92.0051 256.417 91.6741 257.075 91.3333 257.756C90.9925 258.438 90.6615 259.095 90.3403 259.73C90.0388 260.318 89.8194 260.775 89.6821 261.102L87.5354 266.218C87.3982 266.545 87.1961 267.092 86.9292 267.859C86.6622 268.626 86.3756 269.44 86.0695 270.301C85.7829 271.115 85.5062 271.905 85.2392 272.672C84.9723 273.439 84.7702 273.986 84.6329 274.313L84.2938 274.336L81.719 273.008L81.5563 272.61C82.066 271.396 82.3081 270.426 82.2827 269.701C82.2301 268.909 81.5264 268.23 80.1715 267.661C79.424 267.347 78.3139 267.046 76.8414 266.758C75.3418 266.404 73.3681 266.262 70.9203 266.334L66.9389 266.394L61.7927 278.658L64.5684 281.471C66.2712 283.175 67.7586 284.541 69.0305 285.569C70.3024 286.597 71.242 287.239 71.8493 287.494C72.9706 287.964 73.8395 288.054 74.4561 287.763C75.0726 287.473 75.6357 286.72 76.1454 285.505L76.5728 285.272L79.324 286.18L79.5456 286.437C79.4083 286.764 79.1693 287.269 78.8285 287.95C78.4877 288.631 78.1273 289.359 77.7473 290.133C77.3869 290.861 77.0364 291.566 76.6956 292.247C76.3548 292.928 76.1158 293.432 75.9785 293.76L74.2435 297.894C74.1063 298.221 73.9238 298.722 73.6961 299.395C73.4683 300.069 73.2308 300.766 72.9834 301.486C72.7361 302.207 72.4985 302.904 72.2708 303.578C72.0627 304.205 71.89 304.682 71.7527 305.009L71.443 304.961L68.8388 303.703L68.7055 303.235C68.9603 302.628 69.1685 302.001 69.3299 301.355C69.4913 300.708 69.5359 300.012 69.4638 299.268C69.3916 298.523 69.1928 297.753 68.8674 296.957C68.5149 296.095 67.9989 295.164 67.3193 294.165C67.0978 293.907 66.7656 293.52 66.3226 293.004C65.8328 292.469 64.9679 291.584 63.7277 290.35C62.4875 289.115 60.7146 287.382 58.409 285.151C56.1034 282.92 53.0338 279.956 49.2002 276.259L36.2415 263.733L36.227 257.875L36.5505 257.104ZM57.1768 275.32L61.0291 266.14L46.7428 265.42L57.1768 275.32Z" fill="#FFFCF3"/>
<path d="M71.143 203.939C71.1758 204.486 71.3125 205.358 71.5531 206.554C71.8193 207.706 72.1657 209.023 72.5923 210.504C72.9752 211.959 73.4073 213.531 73.8886 215.219C74.3954 216.864 74.8713 218.462 75.3161 220.012L77.4383 227.233C80.8592 227 84.2638 226.845 87.6519 226.769C91.0218 226.623 94.4446 226.186 97.9203 225.456C99.4375 225.168 100.833 224.838 102.105 224.466C103.36 224.025 104.553 223.489 105.683 222.858C106.77 222.202 107.83 221.441 108.862 220.577C109.85 219.687 110.862 218.606 111.898 217.333L112.391 217.093L114.962 218.417L115.148 218.701C114.765 219.358 114.356 220.058 113.922 220.802C113.532 221.571 113.129 222.363 112.713 223.176C112.323 223.945 111.936 224.658 111.553 225.315C111.214 225.997 110.917 226.557 110.661 226.994C109.997 228.132 109.231 229.093 108.363 229.877C107.539 230.687 106.531 231.36 105.338 231.896C104.171 232.388 102.772 232.774 101.142 233.055C99.5118 233.336 97.5898 233.564 95.376 233.739C94.8289 233.771 93.8825 233.835 92.5367 233.93C91.1727 233.955 89.6829 233.995 88.0672 234.05C86.4516 234.105 84.8359 234.159 83.2203 234.214C81.5609 234.243 80.1276 234.287 78.9204 234.345C79.0954 235.151 79.2704 235.957 79.4454 236.763C79.5767 237.543 79.7426 238.315 79.9431 239.077L80.4683 239.383C82.3063 240.456 83.7286 241.286 84.7352 241.873C85.698 242.435 86.4857 242.894 87.0984 243.252C87.6929 243.54 88.187 243.799 88.5809 244.028C88.9565 244.189 89.4416 244.413 90.036 244.701C91.3562 245.354 92.3464 245.668 93.0065 245.643C93.6666 245.617 94.2301 245.506 94.6969 245.309C95.2768 245.119 95.7674 244.731 96.1686 244.144C96.5954 243.513 97.013 242.847 97.4215 242.147L97.8373 242.038L100.447 243.296L100.633 243.581C100.454 243.887 100.138 244.377 99.6861 245.052C99.2339 245.727 98.7688 246.423 98.291 247.142C97.8132 247.86 97.3482 248.557 96.8959 249.231C96.4436 249.906 96.1281 250.397 95.9494 250.703L93.6898 254.576C93.5111 254.882 93.2393 255.398 92.8746 256.124C92.5098 256.85 92.1323 257.598 91.742 258.367C91.3518 259.137 90.9742 259.884 90.6095 260.61C90.2447 261.336 89.973 261.852 89.7943 262.158L89.4551 262.136L87.0755 260.484L87.0044 260.003C87.4129 259.302 87.774 258.633 88.0877 257.995C88.3576 257.331 88.4543 256.713 88.3778 256.14C88.2757 255.612 88.0733 255.054 87.7706 254.466C87.4935 253.835 86.7678 253.119 85.5935 252.316C85.2871 252.138 84.937 251.933 84.5431 251.703C84.131 251.404 83.6186 251.076 83.006 250.719C82.4188 250.317 81.6876 249.862 80.8123 249.351C79.9371 248.84 78.843 248.202 77.5301 247.436L66.83 241.193C65.2982 240.3 64.0072 239.547 62.9569 238.934C61.9066 238.321 61.0094 237.798 60.2655 237.364C59.5215 236.93 58.8742 236.581 58.3235 236.319C57.7983 236.012 57.2604 235.728 56.7097 235.465C55.477 234.863 54.496 234.584 53.7666 234.628C53.0627 234.628 52.4773 234.726 52.0105 234.923C51.4306 235.113 50.94 235.501 50.5388 236.088C50.1376 236.676 49.7327 237.319 49.3242 238.019L48.8702 238.194L46.2608 236.936L46.0748 236.652C46.2535 236.345 46.569 235.855 47.0213 235.18C47.4735 234.505 47.9386 233.809 48.4164 233.09C48.8942 232.372 49.3592 231.675 49.8115 231.001C50.2638 230.326 50.5793 229.835 50.758 229.529L53.0176 225.656C53.1963 225.35 53.4681 224.834 53.8328 224.108C54.1976 223.382 54.5751 222.635 54.9654 221.865C55.3557 221.096 55.7332 220.348 56.0979 219.622C56.4627 218.896 56.7344 218.38 56.9131 218.074L57.2523 218.096L59.6319 219.748L59.7413 220.164C59.3839 220.777 59.0446 221.459 58.7237 222.21C58.3844 222.892 58.2531 223.519 58.3297 224.092C58.4317 224.621 58.6214 225.201 58.8985 225.831C59.2012 226.419 59.9524 227.092 61.1523 227.85C61.6519 228.2 62.1515 228.551 62.6511 228.901C63.1325 229.182 63.7106 229.548 64.3853 230C65.0417 230.383 65.8294 230.843 66.7485 231.379C67.6237 231.89 68.6959 232.515 69.9651 233.256L73.116 235.094C73.189 233.963 73.1198 232.574 72.9084 230.925C72.6532 229.251 72.3324 227.539 71.9459 225.788C71.6432 224.497 71.2877 223.146 70.8794 221.735C70.4272 220.298 69.9678 218.974 69.501 217.763C69.0598 216.508 68.6167 215.458 68.1718 214.612C67.7269 213.766 67.3732 213.266 67.1106 213.113C66.6292 212.832 66.1934 212.724 65.8032 212.79C65.3947 212.786 65.0008 212.908 64.6215 213.156C64.2677 213.361 63.9194 213.656 63.5766 214.043C63.2337 214.429 62.8909 214.816 62.548 215.202L62.0939 215.377L59.5994 213.922L59.5284 213.441C60.214 212.667 60.8596 211.812 61.4651 210.875C62.0961 209.894 62.7052 208.9 63.2925 207.894L66.701 202.051C67.0074 201.526 67.2627 201.088 67.4669 200.738C67.6967 200.344 67.8919 199.96 68.0524 199.584C68.2384 199.165 68.4372 198.723 68.6487 198.26C68.8603 197.797 69.101 197.234 69.371 196.57L69.7867 196.46L72.2812 197.916L72.3906 198.332C72.1207 198.995 71.8362 199.885 71.5371 201.001C71.2635 202.073 71.1321 203.053 71.143 203.939Z" fill="#FFFCF3"/>
<path d="M86.0864 175.717C86.5168 175.154 87.1471 174.328 87.9772 173.241C88.7978 172.082 89.6337 170.904 90.4851 169.705C91.3364 168.507 92.1157 167.444 92.8228 166.518C93.4897 165.561 93.9 164.982 94.0537 164.78L94.9345 164.879L102.497 171.13L100.421 173.849L99.9951 173.906C99.1685 173.402 98.4722 173.062 97.9062 172.885C97.371 172.667 96.7721 172.784 96.1095 173.234C95.447 173.685 94.6037 174.539 93.5796 175.797C92.5862 177.014 91.2286 178.751 89.5069 181.006L86.8782 184.449L87.3757 184.925C87.9088 185.395 88.4016 185.835 88.8541 186.245C89.3374 186.614 89.8858 187.064 90.4994 187.596C91.1438 188.088 91.9291 188.688 92.8553 189.395C93.7816 190.102 94.9696 191.009 96.4194 192.116L98.4733 193.684C99.1709 192.687 99.8781 191.76 100.595 190.905C101.271 190.019 101.881 189.178 102.425 188.382C102.969 187.586 103.401 186.896 103.72 186.311C104.029 185.655 104.156 185.114 104.098 184.688C104.003 183.977 103.593 183.346 102.868 182.792L102.797 182.26L104.382 179.932L104.687 179.783C105.552 180.571 106.296 181.266 106.919 181.869C107.573 182.432 108.343 183.052 109.229 183.728C110.196 184.466 111.117 185.138 111.994 185.743C112.861 186.278 113.808 186.873 114.836 187.531L114.772 187.865L112.899 190.068L112.533 190.171C111.527 189.402 110.643 189.015 109.883 189.008C109.194 188.992 108.246 189.734 107.037 191.234C105.819 192.662 104.503 194.303 103.088 196.155L102.581 196.82L107.535 200.602C108.702 201.493 109.669 202.231 110.434 202.815C111.23 203.359 111.91 203.846 112.474 204.277C113.028 204.636 113.562 204.98 114.076 205.309C114.59 205.638 115.185 206.028 115.86 206.479C116.656 207.023 117.346 206.913 117.93 206.147L120.005 203.429C121.758 201.134 123.086 199.311 123.989 197.96C124.923 196.57 125.51 195.425 125.751 194.525C125.952 193.594 125.878 192.773 125.529 192.061C125.211 191.308 124.661 190.442 123.879 189.462L123.822 189.036L125.989 186.197L133.993 194.124L134.228 195.069C134.075 195.27 133.67 195.758 133.015 196.533C132.431 197.298 131.75 198.148 130.972 199.084C130.193 200.02 129.415 200.956 128.637 201.892C127.899 202.858 127.315 203.623 126.885 204.187L117.569 216.39C117.354 216.671 117.02 217.15 116.568 217.825C116.117 218.5 115.65 219.195 115.167 219.911C114.685 220.626 114.218 221.321 113.766 221.996C113.315 222.672 112.981 223.15 112.766 223.432L112.432 223.368L110.275 221.435L110.264 220.948C110.756 220.304 111.197 219.684 111.587 219.09C111.937 218.464 112.109 217.863 112.104 217.285C112.068 216.748 111.936 216.169 111.709 215.549C111.512 214.889 110.88 214.088 109.814 213.146C109.532 212.931 109.21 212.685 108.847 212.408C108.475 212.061 108.007 211.672 107.444 211.241C106.911 210.771 106.241 210.228 105.436 209.613C104.63 208.998 103.624 208.229 102.415 207.307L92.5689 199.79C91.1594 198.714 89.9714 197.807 89.0048 197.069C88.0383 196.331 87.2127 195.701 86.5281 195.178C85.8435 194.655 85.2442 194.23 84.7301 193.901C84.2469 193.532 83.7482 193.183 83.2342 192.854C82.0854 192.105 81.1464 191.707 80.4171 191.66C79.7187 191.573 79.1256 191.598 78.638 191.736C78.0391 191.852 77.5043 192.177 77.0336 192.71C76.5629 193.243 76.0816 193.832 75.5897 194.476L75.1175 194.594L72.6836 193.023L72.5342 192.717C72.7494 192.436 73.1231 191.988 73.6553 191.374C74.1875 190.761 74.7505 190.107 75.3442 189.413C75.9686 188.678 76.5623 187.984 77.1252 187.33C77.7189 186.636 78.1848 186.067 78.523 185.624L86.0864 175.717Z" fill="#FFFCF3"/>
<path d="M171.858 157.232C171.601 157.475 171.16 157.857 170.536 158.377C169.912 158.897 169.27 159.435 168.609 159.99C167.949 160.545 167.306 161.082 166.682 161.603C166.059 162.123 165.618 162.505 165.36 162.748L162.102 165.829C161.844 166.073 161.438 166.491 160.884 167.085C160.33 167.679 159.739 168.308 159.111 168.971C158.52 169.6 157.947 170.211 157.393 170.804C156.839 171.398 156.433 171.817 156.175 172.061L155.911 171.892L154.037 169.689L154.104 169.207C154.657 168.685 155.173 168.162 155.654 167.638C156.136 167.042 156.421 166.458 156.509 165.887C156.597 165.316 156.578 164.707 156.453 164.058C156.328 163.409 155.815 162.535 154.913 161.434C154.707 161.142 154.447 160.83 154.133 160.499C153.822 160.096 153.423 159.636 152.935 159.121C152.485 158.571 151.911 157.928 151.215 157.191C150.519 156.455 149.649 155.535 148.605 154.43L147.612 153.381C146.638 152.35 145.707 151.661 144.821 151.314C143.9 150.929 143.048 150.619 142.267 150.382C139.172 149.542 135.879 148.751 132.387 148.008C128.932 147.231 125.388 146.468 121.753 145.722C121.112 145.56 120.452 145.452 119.773 145.397C119.058 145.306 118.468 145.271 118.001 145.294C117.283 145.346 116.56 145.576 115.832 145.986C115.14 146.361 114.391 146.859 113.585 147.482L112.935 147.679L110.951 145.58L111.018 145.098C112.043 144.339 112.976 143.666 113.816 143.08C114.622 142.458 115.467 141.729 116.351 140.893L120.879 136.611C121.726 135.811 122.666 134.852 123.701 133.734C124.738 132.544 125.72 131.407 126.646 130.322L127.076 130.334L129.06 132.432L129.048 132.862C128.346 133.595 127.772 134.278 127.324 134.91C126.841 135.506 126.539 136.071 126.416 136.605C126.292 137.211 126.421 137.716 126.804 138.121C127.013 138.342 127.259 138.528 127.541 138.68C127.86 138.796 128.162 138.894 128.447 138.974L144.887 143.197L142.039 127.796C141.815 126.822 141.39 126.003 140.763 125.341C140.346 124.899 139.904 124.689 139.437 124.712C138.97 124.735 138.482 124.883 137.973 125.155C137.5 125.393 137.008 125.719 136.494 126.135C136.017 126.516 135.524 126.843 135.015 127.115L134.585 127.103L132.601 125.005L132.613 124.575C133.855 123.75 134.843 123.025 135.577 122.4C136.277 121.739 137.087 120.973 138.007 120.103L142.867 115.508C143.75 114.672 144.543 113.888 145.244 113.155C145.946 112.422 146.742 111.494 147.634 110.372L148.064 110.385L150.048 112.483L150.036 112.913C149.293 113.824 148.715 114.65 148.3 115.391C147.885 116.132 147.595 116.894 147.429 117.678C147.264 118.462 147.186 119.338 147.194 120.306C147.24 121.239 147.352 122.353 147.531 123.649C147.958 126.313 148.324 128.617 148.628 130.561C148.934 132.433 149.227 134.108 149.508 135.585C149.792 136.991 150.06 138.307 150.312 139.532C150.564 140.758 150.833 142.038 151.118 143.372C151.18 143.732 151.38 144.275 151.718 145.002C152.021 145.691 152.434 146.312 152.956 146.864L153.739 147.692C154.992 149.018 156.002 150.085 156.768 150.895C157.533 151.705 158.177 152.386 158.7 152.939C159.259 153.456 159.712 153.899 160.06 154.267C160.445 154.6 160.865 154.97 161.319 155.377C162.368 156.339 163.212 156.9 163.853 157.061C164.53 157.188 165.138 157.241 165.676 157.22C166.214 157.199 166.776 156.982 167.361 156.568C167.948 156.083 168.536 155.562 169.125 155.005L169.61 154.964L171.76 156.906L171.858 157.232Z" fill="#FFFCF3"/>
<path d="M168.183 95.3898C171.341 93.0989 174.552 91.6146 177.816 90.9368C181.08 90.2591 184.252 90.2741 187.331 90.9818C190.382 91.6485 193.245 92.9204 195.921 94.7973C198.638 96.6445 200.993 98.942 202.986 101.69C204.95 104.397 206.423 107.334 207.407 110.501C208.36 113.628 208.675 116.779 208.351 119.957C208.068 123.104 207.086 126.195 205.406 129.229C203.738 132.192 201.242 134.878 197.92 137.288C194.721 139.609 191.51 141.093 188.287 141.741C185.064 142.389 181.963 142.385 178.984 141.73C176.016 141.004 173.229 139.708 170.624 137.842C167.989 135.935 165.675 133.608 163.681 130.86C161.569 127.948 160.042 124.894 159.099 121.697C158.127 118.458 157.798 115.286 158.111 112.18C158.394 109.032 159.364 106.012 161.021 103.12C162.679 100.228 165.066 97.6509 168.183 95.3898ZM194.585 131.914C196.595 130.457 198.081 128.752 199.045 126.801C200.019 124.78 200.534 122.685 200.589 120.517C200.614 118.308 200.229 116.052 199.435 113.749C198.611 111.405 197.41 109.146 195.833 106.973C194.227 104.758 192.432 102.931 190.448 101.49C188.475 99.9793 186.409 98.9431 184.249 98.3817C182.131 97.7906 179.989 97.6856 177.824 98.0667C175.629 98.4067 173.527 99.3057 171.518 100.764C169.549 102.192 168.089 103.846 167.137 105.726C166.185 107.606 165.702 109.615 165.688 111.753C165.674 113.891 166.1 116.117 166.965 118.432C167.8 120.705 169.021 122.949 170.628 125.164C172.413 127.624 174.327 129.616 176.371 131.138C178.384 132.619 180.435 133.635 182.524 134.185C184.614 134.735 186.685 134.829 188.738 134.466C190.791 134.104 192.74 133.253 194.585 131.914Z" fill="#FFFCF3"/>
<path d="M239.635 53.6318L240.797 56.2855L240.673 56.697C240.047 57.0318 239.401 57.4351 238.734 57.9071C238.088 58.3104 237.648 58.776 237.413 59.3039C237.223 59.8079 237.081 60.4012 236.987 61.0839C236.937 61.7426 237.202 62.7213 237.783 64.0198C238.069 64.5559 238.334 65.1039 238.576 65.6638C238.863 66.1998 239.188 66.8595 239.55 67.6428C239.956 68.4021 240.446 69.3179 241.02 70.3899C241.594 71.462 242.299 72.7797 243.136 74.3431L249.306 85.8677C250.477 88.0565 251.198 90.3146 251.466 92.6418C251.756 94.9005 251.569 97.1272 250.905 99.3218C250.216 101.472 249.015 103.523 247.302 105.474C245.633 107.402 243.436 109.096 240.711 110.554C237.361 112.348 234.331 113.452 231.623 113.868C228.959 114.259 226.586 114.121 224.505 113.454C222.4 112.742 220.555 111.603 218.97 110.038C217.361 108.428 215.971 106.529 214.799 104.34L208.629 92.8152C207.793 91.2518 207.087 89.9341 206.513 88.862C205.939 87.7899 205.449 86.8742 205.043 86.1149C204.636 85.3555 204.267 84.7197 203.936 84.2076C203.649 83.6716 203.339 83.1475 203.008 82.6354C202.273 81.4772 201.583 80.7257 200.939 80.3809C200.339 80.0123 199.789 79.7896 199.288 79.7129C198.695 79.5708 198.073 79.6447 197.424 79.9348C196.775 80.2249 196.093 80.5613 195.378 80.9439L194.9 80.8552L193.336 78.4167L193.326 78.0769C193.639 77.9095 194.165 77.6569 194.903 77.319C195.642 76.981 196.403 76.6311 197.186 76.2693C197.969 75.9075 198.73 75.5576 199.469 75.2197C200.208 74.8817 200.733 74.6291 201.046 74.4617L204.999 72.3455C205.312 72.1781 205.814 71.8808 206.504 71.4535C207.195 71.0263 207.908 70.587 208.644 70.1359C209.379 69.6847 210.092 69.2455 210.783 68.8182C211.474 68.3909 211.976 68.0936 212.288 67.9262L212.566 68.1225L213.728 70.7763L213.603 71.1877C212.978 71.5225 212.332 71.9259 211.665 72.3978C211.019 72.8011 210.578 73.2668 210.344 73.7947C210.154 74.2986 210.034 74.88 209.984 75.5387C209.935 76.1975 210.2 77.1761 210.78 78.4747C211.07 79.124 211.336 79.7286 211.579 80.2885C211.866 80.8246 212.178 81.4619 212.516 82.2005C212.899 82.9152 213.365 83.7862 213.915 84.8136C214.465 85.841 215.17 87.1588 216.031 88.7668L221.232 98.4824C223.456 102.637 225.85 105.177 228.414 106.103C231 106.96 233.99 106.48 237.385 104.663C238.903 103.85 240.203 102.895 241.283 101.8C242.339 100.66 243.086 99.3696 243.521 97.9294C243.957 96.4892 244.061 94.9109 243.832 93.1945C243.578 91.4335 242.902 89.5256 241.802 87.4709L236.601 77.7553C235.74 76.1472 235.035 74.8295 234.485 73.8021C233.935 72.7747 233.446 71.9156 233.019 71.2248C232.636 70.5101 232.279 69.8967 231.948 69.3846C231.661 68.8486 231.328 68.2798 230.948 67.6784C230.165 66.4308 229.464 65.657 228.843 65.3569C228.268 65.033 227.729 64.8326 227.229 64.7559C226.68 64.5898 226.059 64.6638 225.365 64.9778C224.715 65.2679 224.033 65.6043 223.319 65.9869L222.84 65.8982L221.276 63.4597L221.267 63.1199C221.579 62.9525 222.06 62.7238 222.71 62.4337C223.359 62.1436 224.031 61.8415 224.725 61.5275C225.463 61.1896 226.157 60.8756 226.806 60.5855C227.456 60.2954 227.937 60.0666 228.249 59.8993L232.404 57.6754C232.716 57.508 233.196 57.2227 233.842 56.8193C234.488 56.416 235.156 56.0007 235.847 55.5734C236.583 55.1222 237.273 54.695 237.92 54.2916C238.566 53.8883 239.045 53.6029 239.358 53.4355L239.635 53.6318Z" fill="#FFFCF3"/>
<path d="M284.554 90.3229C284.157 90.4207 283.595 90.582 282.867 90.8067C282.186 91.0133 281.435 91.2471 280.613 91.5082C279.838 91.751 279.062 91.9939 278.287 92.2368C277.578 92.5088 276.963 92.7446 276.442 92.9441L272.255 94.5492C271.688 94.7668 271.025 95.0207 270.268 95.3109C269.53 95.6484 268.791 95.9859 268.052 96.3234C267.313 96.6609 266.598 96.9893 265.907 97.3087C265.262 97.6099 264.784 97.8477 264.471 98.0219L264.22 97.7925L263.399 95.0142L263.645 94.5944C265.443 93.9052 266.591 93.2207 267.09 92.541C267.83 91.4978 267.919 89.8901 267.358 87.7178C267.097 86.8954 266.649 85.6563 266.014 84.0004C265.408 82.2792 264.779 80.567 264.126 78.8638L258.141 63.2517C257.506 61.5959 256.984 60.304 256.574 59.3759C256.146 58.4006 255.703 57.4579 255.245 56.548C254.567 55.3432 254 54.5023 253.546 54.0253C253.139 53.5301 252.659 53.1985 252.106 53.0306C251.637 52.9391 251.101 52.9549 250.497 53.0779C249.94 53.1828 249.118 53.4438 248.029 53.861L247.566 53.7132L246.319 51.0981L246.352 50.7599C247.637 50.4302 248.888 50.086 250.107 49.7272C251.356 49.303 252.335 48.9549 253.044 48.6828L258.437 46.6152C259.526 46.1981 260.747 45.7029 262.1 45.1296C263.502 44.5382 264.722 44.043 265.763 43.644C271.393 41.4857 276.059 40.9179 279.761 41.9405C283.445 42.9158 286.085 45.485 287.681 49.6483C288.823 52.6288 288.991 55.6846 288.184 58.8157C287.406 61.8814 285.658 64.966 282.941 68.0696C285.474 69.8658 287.575 71.3122 289.244 72.409C290.96 73.4876 292.392 74.3222 293.541 74.9127C295.119 75.773 296.544 76.4475 297.816 76.9363C299.089 77.4251 300.284 77.7811 301.4 78.0042C302.564 78.2092 303.697 78.2632 304.799 78.1662C305.902 78.0692 307.086 77.8322 308.352 77.4553L308.887 77.5759L310.063 80.2181L310.03 80.5564C308.268 81.3402 306.734 82.0097 305.428 82.5648C304.139 83.1673 303.188 83.5864 302.572 83.8221C300.065 84.7834 297.555 84.9589 295.042 84.3486C292.558 83.673 289.561 82.0818 286.049 79.5753C285.239 79.0179 284.345 78.3839 283.367 77.6735C282.436 76.945 281.491 76.2491 280.532 75.586C279.601 74.8575 278.713 74.1672 277.866 73.5151C277.019 72.8631 276.312 72.293 275.745 71.8049L271.132 73.5732C271.749 75.1818 272.284 76.5774 272.738 77.7601C273.173 78.8955 273.554 79.889 273.88 80.7406C274.254 81.574 274.582 82.2892 274.865 82.8861C275.149 83.483 275.414 84.0325 275.66 84.5348C276.684 86.6385 277.73 87.811 278.799 88.0522C279.221 88.1618 279.711 88.1642 280.267 88.0593C280.824 87.9544 281.717 87.6662 282.947 87.1946L283.34 87.3697L284.587 89.9847L284.554 90.3229ZM272.739 66.9344C276.192 65.6105 278.571 63.7488 279.876 61.3494C281.228 58.9318 281.342 56.2564 280.218 53.3232C279.202 50.6739 277.592 49.0934 275.389 48.5817C273.167 48.0227 270.14 48.4778 266.307 49.9468L262.972 51.2255C263.556 53.1723 264.023 54.6751 264.375 55.7341C264.727 56.793 265.084 57.7956 265.447 58.7418L268.113 65.6962C268.494 66.6897 268.875 67.3304 269.257 67.6182C269.638 67.906 270.16 67.9229 270.822 67.669L272.739 66.9344Z" fill="#FFFCF3"/>
<path d="M349.813 72.0837C349.467 72.1592 348.917 72.2532 348.164 72.3656C347.41 72.478 346.607 72.6012 345.755 72.7352C344.903 72.8691 344.1 72.9923 343.346 73.1047C342.593 73.2171 342.043 73.3111 341.697 73.3866L334.494 74.9571C334.147 75.0326 333.608 75.1761 332.876 75.3875C332.145 75.5989 331.363 75.8211 330.533 76.0541C329.751 76.2763 328.995 76.4931 328.263 76.7045C327.531 76.9159 326.992 77.0593 326.646 77.1349L326.432 76.8703L326.04 74L326.346 73.622C327.089 73.4601 327.95 73.2465 328.929 72.9811C329.958 72.7049 330.652 72.3203 331.011 71.8271C331.332 71.3942 331.631 70.8624 331.908 70.2315C332.185 69.6006 332.247 68.5759 332.093 67.1574C332.067 66.8001 332.006 66.3987 331.908 65.9531C331.85 65.4473 331.745 64.8479 331.594 64.1548C331.493 63.451 331.334 62.604 331.118 61.6139C330.902 60.6239 330.632 59.3863 330.308 57.9012L327.346 44.3124C326.752 41.5897 326.199 39.1694 325.685 37.0515C325.171 34.9337 324.776 33.3603 324.5 32.3315L323.683 32.5096C321.802 32.9198 320.248 33.2845 319.022 33.6038C317.784 33.8737 316.805 34.139 316.084 34.4C315.352 34.6114 314.799 34.8097 314.424 34.9951C314.099 35.1696 313.879 35.3474 313.763 35.5283C313.272 35.8945 312.913 36.3877 312.685 37.0078C312.457 37.6279 312.375 38.32 312.438 39.0841L312.206 39.4459L309.013 40.1421L307.363 30.0785L307.514 29.3454L307.911 29.0255C308.34 29.0877 309.238 29.0473 310.607 28.9044C311.965 28.712 313.442 28.4679 315.037 28.172C316.632 27.8761 318.153 27.5964 319.599 27.3329C321.084 27.0091 322.148 26.7771 322.792 26.6368L332.148 24.5968C332.792 24.4565 333.831 24.2299 335.267 23.9169C336.741 23.5436 338.265 23.1595 339.838 22.7646C341.412 22.3697 342.856 21.977 344.171 21.5866C345.475 21.1467 346.309 20.8093 346.673 20.5744L347.167 20.7001L347.609 21.3036L350.373 31.1243L347.106 31.8367L346.744 31.6044C346.483 30.8835 346.12 30.2885 345.655 29.8195C345.189 29.3505 344.658 29.0516 344.059 28.9228C343.867 28.7572 343.563 28.668 343.145 28.6554C342.766 28.5824 342.2 28.6021 341.447 28.7145C340.693 28.8269 339.698 29.018 338.46 29.2879C337.272 29.5469 335.738 29.8815 333.856 30.2916L333.04 30.4697C333.249 31.6686 333.545 33.2635 333.927 35.2545C334.359 37.2346 334.882 39.6355 335.498 42.4572L338.153 54.6352C338.541 56.4173 338.86 57.8777 339.108 59.0162C339.345 60.1053 339.545 61.0211 339.707 61.7637C339.918 62.4955 340.083 63.1336 340.202 63.6782C340.36 64.1624 340.528 64.6961 340.707 65.2794C341.119 66.6934 341.607 67.6241 342.171 68.0715C342.736 68.5189 343.248 68.848 343.709 69.0586C343.95 69.2135 344.255 69.3026 344.623 69.3261C345.04 69.3388 345.477 69.3213 345.934 69.2736C346.39 69.226 346.841 69.1536 347.287 69.0565C347.782 68.9485 348.227 68.8514 348.623 68.7651L349.059 68.9811L349.897 71.7543L349.813 72.0837Z" fill="#FFFCF3"/>
<path d="M372.094 18.1389L372.256 21.0313L371.996 21.3734C371.192 21.4824 370.446 21.6348 369.757 21.8306C369.061 21.9762 368.485 22.2587 368.031 22.6783C367.627 23.091 367.261 23.6008 366.935 24.2076C366.658 24.8075 366.615 25.8104 366.806 27.2162C366.851 27.9259 366.889 28.5854 366.921 29.1947C367.003 29.7972 367.073 30.5035 367.132 31.3136C367.241 32.1169 367.374 33.0959 367.53 34.2507C367.687 35.4054 367.888 36.8865 368.133 38.694L369.604 49.5386C369.85 51.346 370.05 52.8271 370.207 53.9819C370.357 55.0864 370.483 56.0153 370.585 56.7684C370.738 57.5147 370.851 58.1639 370.926 58.7162C371.044 59.2115 371.17 59.7569 371.302 60.3526C371.593 61.7448 371.951 62.6931 372.378 63.1977C372.804 63.7023 373.242 64.1031 373.691 64.4001C374.191 64.6902 374.799 64.8378 375.515 64.8428C376.275 64.7909 377.057 64.7104 377.86 64.6014L378.202 64.8618L378.817 67.6929L378.707 68.0146C378.355 68.0623 377.775 68.1155 376.965 68.1743C376.154 68.2331 375.319 68.2952 374.459 68.3608C373.599 68.4264 372.763 68.4886 371.953 68.5474C371.143 68.6062 370.562 68.6594 370.211 68.7071L365.768 69.3099C365.416 69.3576 364.842 69.461 364.046 69.6202C363.249 69.7794 362.428 69.942 361.581 70.108C360.734 70.274 359.913 70.4366 359.116 70.5958C358.32 70.755 357.746 70.8584 357.394 70.9061L357.203 70.6253L357.04 67.7329L357.376 67.3805C358.179 67.2716 358.929 67.1443 359.625 66.9987C360.365 66.7961 360.911 66.4919 361.265 66.0859C361.619 65.68 361.909 65.1804 362.136 64.5873C362.412 63.9873 362.555 62.9709 362.566 61.5378C362.518 61.1864 362.463 60.7847 362.402 60.3329C362.384 59.824 362.328 59.2181 362.232 58.5152C362.187 57.8055 362.096 56.9486 361.96 55.9444C361.824 54.9403 361.654 53.6851 361.449 52.1789L359.784 39.9034C359.545 38.1462 359.344 36.6651 359.181 35.4601C359.018 34.2551 358.853 33.2293 358.687 32.3826C358.571 31.5291 358.447 30.8045 358.315 30.2088C358.233 29.6064 358.127 29.0073 357.995 28.4116C357.717 27.1199 357.362 26.1966 356.929 25.6418C356.495 25.087 356.054 24.6611 355.605 24.3642C355.105 24.074 354.501 23.9515 353.791 23.9967C353.074 23.9916 352.315 24.0436 351.511 24.1526L351.094 23.9024L350.48 21.0713L350.589 20.7496C350.941 20.7019 351.522 20.6487 352.332 20.5899C353.142 20.5311 353.977 20.469 354.837 20.4034C355.698 20.3378 356.533 20.2756 357.343 20.2168C358.153 20.158 358.734 20.1048 359.085 20.0571L363.529 19.4543C363.88 19.4066 364.454 19.3032 365.251 19.144C366.047 18.9848 366.869 18.8222 367.715 18.6562C368.562 18.4902 369.384 18.3276 370.18 18.1684C370.977 18.0092 371.551 17.9058 371.902 17.8581L372.094 18.1389Z" fill="#FFFCF3"/>
<path d="M446.071 65.308C445.716 65.3171 445.133 65.3066 444.322 65.2767C443.51 65.2467 442.673 65.2174 441.81 65.1888C440.948 65.1601 440.111 65.1308 439.299 65.1009C438.488 65.071 437.905 65.0605 437.55 65.0696L433.068 65.1841C432.713 65.1932 432.131 65.2334 431.322 65.3047C430.513 65.3761 429.678 65.4481 428.819 65.5208C427.959 65.5934 427.125 65.6654 426.315 65.7368C425.506 65.8081 424.925 65.8483 424.57 65.8574L424.334 65.5593L424.488 62.6664L424.785 62.3548L425.62 62.3334C427.089 62.2959 428.223 62.0388 429.022 61.5623C429.87 61.0338 430.275 60.0351 430.238 58.5662L427.931 33.7651C427.8 32.6027 427.698 31.5916 427.626 30.7319C427.604 29.8708 427.478 28.9364 427.25 27.9286C426.969 28.848 426.521 30.1519 425.905 31.8402C425.29 33.5285 424.579 35.4726 423.774 37.6725C423.018 39.8205 422.19 42.1225 421.289 44.5783C420.389 47.034 419.489 49.4898 418.589 51.9456C417.687 54.3508 416.834 56.6787 416.03 58.9293C415.275 61.1279 414.615 63.0454 414.048 64.6818L407.819 64.841L393.599 29.0165C393.63 30.2321 393.605 31.2464 393.524 32.0594C393.443 32.8217 393.367 33.812 393.296 35.0302L392.703 47.5134C392.644 49.1875 392.579 50.5829 392.506 51.6998C392.482 52.7648 392.455 53.6778 392.424 54.4388C392.443 55.1986 392.46 55.857 392.474 56.4142C392.488 56.9713 392.503 57.5285 392.517 58.0856C392.554 59.5545 392.732 60.5636 393.05 61.113C393.419 61.6611 393.81 62.0819 394.223 62.3754C394.639 62.7703 395.1 62.9866 395.608 63.0243C396.167 63.0607 396.851 63.0685 397.661 63.0478L397.973 63.344L398.275 66.2252L398.131 66.533C397.776 66.542 397.244 66.5303 396.533 66.4978C395.873 66.464 395.188 66.4308 394.478 66.3982C393.768 66.3657 393.057 66.3332 392.347 66.3007C391.687 66.2668 391.18 66.2544 390.825 66.2635L386.343 66.378C385.988 66.3871 385.406 66.4273 384.597 66.4987C383.839 66.5687 383.004 66.6407 382.094 66.7147C381.234 66.7873 380.4 66.8593 379.591 66.9307C378.832 67.0008 378.276 67.0403 377.921 67.0494L377.761 66.7494L377.916 63.8565L378.364 63.5409C379.123 63.5215 379.857 63.4774 380.565 63.4087C381.272 63.2892 381.874 63.0458 382.371 62.6783C382.767 62.3134 383.161 61.8472 383.552 61.2797C383.943 60.7122 384.247 59.7161 384.464 58.2914C384.549 57.681 384.655 56.8421 384.779 55.7745C384.904 54.707 385.036 52.9044 385.173 50.3667L385.882 36.436C385.988 34.6594 386.052 33.1626 386.071 31.9457C386.141 30.7276 386.165 29.6879 386.143 28.8269C386.172 27.9645 386.179 27.2295 386.163 26.6217C386.198 26.0126 386.208 25.4041 386.193 24.7963C386.155 23.3275 385.901 22.3203 385.431 21.7748C385.012 21.228 384.595 20.8078 384.183 20.5143C383.716 20.1207 383.128 19.9077 382.418 19.8751C381.707 19.8426 380.947 19.8367 380.136 19.8574L379.749 19.5632L379.447 16.682L379.591 16.3742C379.946 16.3651 380.529 16.3756 381.341 16.4055C382.152 16.4355 382.989 16.4647 383.852 16.4934C384.714 16.522 385.551 16.5513 386.363 16.5813C387.174 16.6112 387.758 16.6217 388.112 16.6126L393.962 16.4631C394.317 16.4541 394.772 16.4171 395.328 16.3522C395.934 16.286 396.49 16.1958 396.993 16.0816L397.379 16.2998C397.448 17.0076 397.65 17.9907 397.987 19.2492C398.374 20.5064 398.814 21.8889 399.309 23.3968C399.854 24.9034 400.453 26.5099 401.105 28.2165C401.755 29.8724 402.405 31.503 403.054 33.1083L408.155 45.294C408.747 46.6473 409.341 48.0766 409.937 49.5819C410.533 51.0871 411.077 52.5177 411.568 53.8736C411.714 53.6671 412.097 52.7704 412.715 51.1834C413.334 49.5964 414.069 47.6264 414.921 45.2732C415.773 42.9199 416.67 40.3375 417.612 37.5259C418.603 34.6623 419.52 31.8513 420.361 29.0929C421.254 26.3332 422 23.78 422.599 21.4333C423.247 19.0346 423.654 17.1235 423.82 15.7002L424.193 15.3866C424.6 15.4775 425.033 15.5425 425.49 15.5815C425.947 15.6205 426.378 15.6348 426.784 15.6245L433.317 15.4575C433.672 15.4484 434.254 15.4082 435.063 15.3369C435.872 15.2655 436.706 15.1935 437.566 15.1209C438.426 15.0482 439.26 14.9762 440.069 14.9048C440.879 14.8335 441.46 14.7933 441.815 14.7842L441.975 15.0842L441.821 17.9771L441.448 18.2907C440.689 18.3101 439.93 18.3802 439.173 18.5009C438.465 18.5697 437.888 18.7872 437.441 19.1534C437.044 19.4676 436.625 19.9345 436.185 20.5539C435.795 21.1721 435.617 22.1649 435.652 23.5325C435.671 24.2416 435.687 24.9 435.703 25.5078C435.718 26.1156 435.762 26.8241 435.833 27.6332C435.905 28.4423 435.98 29.4287 436.061 30.5924C436.192 31.7547 436.357 33.2457 436.555 35.0652L437.747 45.9823C437.945 47.8018 438.11 49.2928 438.241 50.4552C438.371 51.5669 438.471 52.502 438.541 53.2604C438.661 54.0176 438.754 54.6741 438.819 55.2299C438.883 55.7352 438.973 56.2904 439.09 56.8956C439.33 58.3593 439.66 59.3645 440.079 59.9113C440.499 60.4581 440.915 60.8783 441.328 61.1718C441.794 61.5654 442.382 61.7784 443.093 61.8109C443.854 61.8422 444.639 61.8474 445.45 61.8267L445.837 62.1209L446.139 65.0022L446.071 65.308Z" fill="#FFFCF3"/>
<path d="M468.104 18.7066C468.81 18.7815 469.843 18.8911 471.203 19.0355C472.619 19.1348 474.06 19.2369 475.527 19.3416C476.993 19.4463 478.306 19.5601 479.465 19.6831C480.629 19.7557 481.337 19.8054 481.589 19.8321L481.962 20.636L480.549 30.3451L477.149 29.9842L476.878 29.6498C476.879 28.6818 476.808 27.91 476.666 27.3344C476.573 26.7641 476.163 26.3129 475.434 25.9808C474.705 25.6487 473.537 25.3718 471.93 25.1503C470.373 24.9342 468.184 24.6764 465.363 24.3769L461.055 23.9197L460.907 24.5918C460.782 25.2918 460.662 25.9415 460.547 26.5407C460.483 27.1453 460.383 27.848 460.247 28.6488C460.162 29.455 460.057 30.4375 459.934 31.5963C459.811 32.7551 459.654 34.2414 459.461 36.0552L459.188 38.6248C460.403 38.7028 461.562 38.8258 462.665 38.9938C463.773 39.1114 464.809 39.1959 465.771 39.2471C466.734 39.2983 467.548 39.3083 468.214 39.2771C468.935 39.2008 469.463 39.0275 469.798 38.7573C470.355 38.3069 470.682 37.6283 470.778 36.7214L471.196 36.3836L474.008 36.5293L474.294 36.7125C474.071 37.8606 473.863 38.8576 473.671 39.7035C473.53 40.5546 473.401 41.5344 473.283 42.6429C473.155 43.8521 473.059 44.9884 472.998 46.0518C472.991 47.0702 472.974 48.1893 472.947 49.4092L472.629 49.5283L469.773 49.0723L469.494 48.8135C469.628 47.5539 469.5 46.5977 469.111 45.945C468.767 45.348 467.64 44.9227 465.731 44.6691C463.877 44.3705 461.792 44.0982 459.474 43.8522L458.643 43.7639L457.985 49.9611C457.83 51.4223 457.702 52.6315 457.6 53.5887C457.549 54.5514 457.486 55.3854 457.411 56.0908C457.392 56.7511 457.375 57.3862 457.361 57.9962C457.348 58.6061 457.323 59.3169 457.288 60.1283C457.237 61.091 457.69 61.6231 458.647 61.7247L462.048 62.0857C464.92 62.3905 467.167 62.5781 468.79 62.6484C470.464 62.7241 471.747 62.6311 472.641 62.3693C473.541 62.0572 474.204 61.5671 474.632 60.8992C475.109 60.2366 475.564 59.3167 475.994 58.1396L476.329 57.8694L479.881 58.2464L477.266 69.2036L476.581 69.8952C476.329 69.8685 475.702 69.7764 474.7 69.6191C473.742 69.5175 472.662 69.3773 471.458 69.1986C470.254 69.0199 469.05 68.8411 467.846 68.6624C466.637 68.5341 465.68 68.4324 464.974 68.3576L449.708 66.7372C449.355 66.6998 448.773 66.6635 447.962 66.6283C447.15 66.5931 446.314 66.5553 445.452 66.5148C444.59 66.4742 443.753 66.4364 442.942 66.4012C442.13 66.366 441.548 66.3297 441.196 66.2923L441.077 65.9739L441.608 63.1261L442.018 62.8639C442.824 62.9495 443.583 63.0045 444.293 63.029C445.009 63.0031 445.613 62.8379 446.104 62.5333C446.544 62.2234 446.97 61.8101 447.382 61.2933C447.844 60.7818 448.2 59.8261 448.45 58.4261C448.488 58.0734 448.531 57.6703 448.579 57.2169C448.683 56.7184 448.772 56.1164 448.847 55.4111C448.972 54.711 449.088 53.8572 449.195 52.8495C449.302 51.8418 449.436 50.5823 449.596 49.0707L450.904 36.7519C451.091 34.9885 451.249 33.5022 451.377 32.293C451.505 31.0838 451.615 30.0509 451.706 29.1944C451.797 28.3379 451.849 27.6046 451.863 26.9947C451.927 26.3901 451.966 25.7828 451.98 25.1728C452.023 23.8018 451.876 22.7926 451.537 22.1452C451.248 21.5031 450.919 21.0096 450.548 20.6645C450.137 20.2133 449.582 19.9251 448.882 19.7998C448.182 19.6746 447.428 19.5692 446.622 19.4836L446.277 19.1412L446.355 16.2453L446.538 15.959C446.891 15.9964 447.467 16.0831 448.268 16.2191C449.069 16.355 449.92 16.4963 450.822 16.643C451.774 16.7949 452.675 16.9416 453.526 17.0829C454.428 17.2295 455.156 17.3323 455.71 17.3911L468.104 18.7066Z" fill="#FFFCF3"/>
</svg>
