<svg width="641" height="630" viewBox="0 0 641 630" fill="none" xmlns="http://www.w3.org/2000/svg">
<path d="M640.686 331.539C640.686 495.865 499.726 629.077 325.843 629.077C151.96 629.077 11 495.865 11 331.539C11 167.213 151.96 34 325.843 34C499.726 34 640.686 167.213 640.686 331.539Z" fill="#FFD291" fill-opacity="0.49"/>
<path d="M41.1429 174.928C41.0506 175.101 40.8932 175.366 40.6708 175.723C40.4483 176.08 40.2127 176.463 39.9639 176.869C39.7151 177.276 39.4795 177.658 39.257 178.015C39.0346 178.373 38.8772 178.638 38.7849 178.811L36.8668 182.405C36.7745 182.578 36.6419 182.856 36.4688 183.24C36.2958 183.624 36.1096 184.032 35.9102 184.465C35.724 184.874 35.5443 185.27 35.3713 185.654C35.1982 186.037 35.0656 186.316 34.9733 186.488L34.7855 186.484L33.4368 185.621L33.3875 185.357C33.5852 184.986 33.8036 184.547 34.0425 184.04C34.2947 183.508 34.3812 183.078 34.3023 182.75C34.2348 182.46 34.1179 182.144 33.9517 181.802C33.7854 181.459 33.3762 181.066 32.7241 180.623C32.5644 180.506 32.3733 180.388 32.151 180.269C31.9172 180.113 31.6273 179.942 31.2815 179.758C30.9488 179.548 30.5355 179.312 30.0414 179.048C29.5474 178.785 28.9298 178.455 28.1888 178.06L21.4079 174.441C20.0493 173.716 18.8323 173.082 17.7569 172.54C16.6815 171.998 15.8778 171.601 15.3459 171.349L15.1284 171.756C14.6274 172.695 14.2245 173.48 13.9197 174.11C13.5901 174.728 13.3511 175.235 13.2028 175.632C13.0298 176.016 12.9152 176.32 12.8591 176.544C12.8163 176.743 12.8121 176.899 12.8467 177.013C12.8252 177.351 12.9041 177.678 13.0836 177.996C13.263 178.314 13.5249 178.597 13.869 178.844L13.9381 179.071L13.0879 180.665L8.26107 177.756L8.00668 177.429L8.01417 177.148C8.19374 176.99 8.49854 176.597 8.92859 175.969C9.33393 175.329 9.75988 174.62 10.2064 173.843C10.653 173.065 11.0798 172.325 11.4868 171.622C11.8822 170.881 12.1657 170.35 12.3371 170.029L14.8286 165.36C15 165.039 15.2768 164.52 15.6591 163.804C16.0299 163.049 16.4139 162.27 16.811 161.467C17.2082 160.663 17.56 159.914 17.8665 159.221C18.1484 158.515 18.305 158.043 18.3363 157.806L18.5661 157.643L18.9787 157.672L24.1021 160.026L23.232 161.656L23.0047 161.725C22.6078 161.577 22.2274 161.517 21.8634 161.545C21.4993 161.572 21.1831 161.689 20.9146 161.895C20.7762 161.916 20.6296 162.013 20.4747 162.184C20.3083 162.317 20.1139 162.563 19.8915 162.92C19.669 163.278 19.393 163.765 19.0634 164.383C18.7471 164.975 18.3384 165.741 17.8374 166.68L17.6199 167.087C18.1996 167.429 18.9769 167.875 19.9518 168.427C20.9399 168.954 22.138 169.594 23.546 170.345L29.6228 173.588C30.5121 174.063 31.2409 174.452 31.809 174.755C32.3525 175.045 32.8095 175.289 33.18 175.487C33.5637 175.66 33.8915 175.819 34.1632 175.964C34.4234 176.071 34.7083 176.191 35.0179 176.325C35.7606 176.657 36.3272 176.785 36.7176 176.708C37.1079 176.631 37.43 176.533 37.6837 176.414C37.8352 176.368 37.9818 176.272 38.1235 176.125C38.2784 175.954 38.4275 175.764 38.5708 175.555C38.7142 175.345 38.8452 175.13 38.9638 174.907C39.0956 174.66 39.2143 174.438 39.3197 174.24L39.5668 174.134L41.0342 174.775L41.1429 174.928Z" fill="#B0554B"/>
<path d="M39.4155 150.843C39.1266 150.316 38.8299 149.75 38.5252 149.145C38.236 148.517 38.005 147.877 37.8323 147.225C37.6595 146.574 37.5877 145.921 37.6168 145.269C37.6614 144.593 37.8847 143.952 38.2867 143.345C38.4104 143.158 38.5807 142.952 38.7975 142.726C39.0064 142.461 39.2309 142.224 39.471 142.014C39.7266 141.78 39.9861 141.565 40.2496 141.371C40.513 141.176 40.7495 141.047 40.959 140.984L41.3314 140.878L44.8347 143.803L43.8374 145.309C43.5108 145.193 43.107 145.195 42.6259 145.312C42.1369 145.392 41.6914 145.735 41.2893 146.341C40.9337 146.878 40.749 147.461 40.7353 148.09C40.6983 148.704 40.77 149.306 40.9504 149.895C41.1307 150.485 41.3925 151.028 41.7356 151.524C42.0555 152.004 42.4021 152.368 42.7756 152.616L45.1916 154.216C46.0787 154.804 46.7439 155.244 47.1875 155.538C47.6464 155.809 48.0471 156.04 48.3893 156.234C48.9338 156.527 49.3926 156.747 49.7658 156.894C50.1312 157.001 50.4574 157.016 50.7445 156.937C50.8997 156.906 51.0742 156.82 51.2679 156.679C51.4537 156.5 51.6279 156.313 51.7904 156.119C51.9529 155.924 52.096 155.733 52.2197 155.547C52.3589 155.337 52.4672 155.173 52.5445 155.056L52.8355 154.997L54.0374 155.693L54.1311 155.856C54.0383 155.996 53.872 156.221 53.6322 156.533C53.3923 156.844 53.1371 157.179 52.8663 157.537C52.6189 157.91 52.3753 158.253 52.1355 158.564C51.919 158.891 51.7644 159.124 51.6716 159.264L50.1872 161.505C50.0789 161.669 49.9088 161.925 49.6769 162.276C49.4838 162.618 49.2635 162.976 49.0161 163.349C48.792 163.738 48.5757 164.115 48.3671 164.481C48.174 164.823 48.0233 165.076 47.915 165.239L47.7518 165.182L46.6077 164.323L46.5372 164.125C46.8001 163.728 47.0358 163.347 47.2444 162.982C47.4296 162.601 47.4908 162.255 47.4277 161.944C47.388 161.649 47.263 161.382 47.0526 161.142C46.8577 160.878 46.4605 160.514 45.8612 160.05C45.5965 159.841 45.2308 159.582 44.7639 159.273C44.297 158.964 43.6434 158.531 42.8031 157.974L40.247 156.281C39.7568 155.956 39.3483 155.686 39.0215 155.469C38.6713 155.237 38.3601 155.048 38.0879 154.901C37.8311 154.731 37.59 154.588 37.3644 154.472C37.1543 154.333 36.9248 154.198 36.6759 154.067C36.4116 153.959 36.1434 153.882 35.8715 153.836C35.5996 153.79 35.4054 153.779 35.289 153.803C34.8309 153.835 34.4625 154.011 34.1839 154.33C33.9053 154.649 33.6422 154.996 33.3948 155.369L33.162 155.417L31.9715 154.628L31.9592 154.418L32.3767 153.788C32.7169 153.275 33.1576 152.609 33.6988 151.792C34.2166 150.96 34.6416 150.217 34.9736 149.564L35.6103 148.222L36.4147 148.453C36.7655 148.887 37.1978 149.324 37.7116 149.765C38.2409 150.183 38.774 150.57 39.3109 150.925L39.4155 150.843Z" fill="#B0554B"/>
<path d="M66.1929 139.448C66.0428 139.229 65.7866 138.965 65.4241 138.655C65.0786 138.323 64.775 138.005 64.5134 137.701L64.3876 137.658C64.5193 138.18 64.6061 138.738 64.6479 139.331C64.7066 139.903 64.698 140.494 64.6221 141.104C64.5462 141.714 64.3891 142.315 64.1509 142.907C63.9519 143.494 63.6495 144.056 63.2436 144.591C62.6347 145.394 61.9792 146.004 61.2771 146.421C60.5749 146.837 59.8708 147.094 59.1647 147.191C58.4586 147.289 57.7532 147.246 57.0485 147.063C56.3608 146.858 55.7268 146.535 55.1466 146.096C54.2764 145.436 53.6614 144.671 53.3018 143.801C52.9423 142.932 52.7984 142.032 52.8703 141.103C52.9308 140.235 53.1565 139.335 53.5477 138.401C53.9165 137.451 54.3242 136.566 54.7708 135.745C55.2174 134.924 55.6578 134.204 56.0922 133.584C56.5042 132.948 56.7863 132.529 56.9386 132.329L57.2937 131.86C56.5851 131.358 56.0157 130.997 55.5856 130.776C55.1332 130.539 54.7309 130.374 54.3785 130.283C53.78 130.145 53.2139 130.243 52.6802 130.577C52.1411 130.871 51.6348 131.33 51.1612 131.955C50.8736 132.334 50.5942 132.772 50.3229 133.269C50.0462 133.727 49.8421 134.205 49.7108 134.703C49.5795 135.2 49.5489 135.704 49.6191 136.214C49.6839 136.685 49.9226 137.112 50.335 137.495L50.334 137.705L49.5221 138.776L46.1475 136.692L46.0227 136.44C45.9903 136.204 46.0398 135.838 46.1711 135.34C46.3025 134.842 46.5041 134.275 46.7762 133.638C47.0259 132.984 47.3429 132.311 47.7272 131.618C48.1062 130.887 48.5409 130.197 49.0314 129.55C49.691 128.68 50.4199 127.95 51.2181 127.36C51.994 126.754 52.7969 126.343 53.6268 126.129C54.4736 125.893 55.339 125.864 56.2229 126.042C57.0845 126.203 57.9392 126.605 58.7872 127.248C59.7021 127.941 60.4746 128.544 61.1048 129.057C61.7519 129.547 62.346 130.015 62.8869 130.46C63.4279 130.906 63.9577 131.342 64.4763 131.77C64.9895 132.159 65.5697 132.599 66.2168 133.09C66.7639 133.434 67.1743 133.657 67.4482 133.76C67.7221 133.862 67.9852 133.886 68.2375 133.831C68.5513 133.788 68.8658 133.604 69.1811 133.281C69.4909 132.919 69.7642 132.581 70.001 132.269L70.211 132.27L71.3998 133.066L71.5083 133.201C71.1762 133.546 70.8129 133.956 70.4185 134.43C70.024 134.904 69.6662 135.353 69.3448 135.777C68.8712 136.402 68.3976 137.026 67.9241 137.651C67.4728 138.293 67.0581 138.91 66.6799 139.501L66.1929 139.448ZM62.578 136.708C62.5172 136.557 62.434 136.389 62.3286 136.203C62.24 135.996 62.0926 135.796 61.8864 135.605L59.1681 133.281L58.9398 133.582C58.4155 134.274 57.9443 134.988 57.5261 135.725C57.108 136.462 56.8187 137.192 56.6582 137.913C56.4977 138.635 56.5138 139.332 56.7064 140.005C56.899 140.678 57.3523 141.285 58.0663 141.826C58.6688 142.283 59.2585 142.502 59.8354 142.482C60.4293 142.44 60.9207 142.163 61.3097 141.65C61.5972 141.27 61.8401 140.857 62.0384 140.41C62.2313 139.924 62.3764 139.454 62.4739 139.001C62.5714 138.548 62.6324 138.12 62.6569 137.717C62.659 137.297 62.6327 136.961 62.578 136.708Z" fill="#B0554B"/>
<path d="M80.5237 124.161L80.0878 124.335L73.1387 122.04C72.6131 121.873 72.1387 121.733 71.7154 121.619C71.3107 121.484 70.8258 121.335 70.2607 121.17C69.6956 121.005 69.0188 120.797 68.2304 120.547C67.442 120.296 66.4199 119.95 65.164 119.509C64.6779 119.339 64.3442 119.23 64.1628 119.182C63.9605 119.114 63.7291 119.059 63.4686 119.015C62.9477 118.926 62.4722 118.935 62.0421 119.04C61.6305 119.124 61.2086 119.367 60.7763 119.769L60.452 119.818L59.3842 118.87L59.3701 118.633C59.728 118.314 60.1045 117.975 60.4996 117.614C60.8948 117.253 61.241 116.906 61.5385 116.571L63.7415 114.09C64.0204 113.775 64.3341 113.38 64.6826 112.903C65.0498 112.405 65.3797 111.949 65.6725 111.535L65.9096 111.521L66.9146 112.414L66.9287 112.651C66.6174 113.086 66.4362 113.543 66.3853 114.022C66.3321 114.461 66.4834 114.839 66.8394 115.155C67.0906 115.378 67.5535 115.658 68.228 115.995C68.9002 116.292 69.6328 116.606 70.4259 116.936C71.2376 117.244 72.0295 117.554 72.8016 117.866C73.5924 118.156 74.211 118.387 74.6576 118.559L79.6533 120.523L77.2475 115.579C77.045 115.174 76.775 114.635 76.4375 113.961C76.0999 113.287 75.7415 112.594 75.3621 111.882C74.9617 111.153 74.5649 110.482 74.1716 109.871C73.7574 109.241 73.3828 108.777 73.0478 108.479C72.5034 107.996 72.0278 107.836 71.621 107.999C71.2141 108.162 70.8027 108.414 70.3867 108.756L70.1495 108.771L69.1445 107.878L69.1304 107.641C69.5674 107.318 69.9544 106.987 70.2914 106.65C70.6283 106.312 70.9363 105.987 71.2151 105.673L73.4739 103.129C73.79 102.773 74.0758 102.409 74.3314 102.037C74.6056 101.644 74.8983 101.229 75.2097 100.794L75.4469 100.78L76.5147 101.729L76.5044 102.056C76.2302 102.45 76.056 102.857 75.9818 103.277C75.9053 103.659 75.9637 104.141 76.157 104.725C76.3527 105.348 76.6717 106.212 77.1141 107.316C77.5541 108.381 78.0163 109.484 78.5005 110.625C78.9824 111.727 79.4399 112.751 79.8729 113.697C80.3036 114.604 80.5876 115.212 80.7249 115.521L83.239 120.786L80.5237 124.161Z" fill="#B0554B"/>
<path d="M98.6254 91.3025L98.421 92.5458C97.3297 93.5923 96.2581 94.6392 95.2064 95.6865C94.1748 96.7144 93.1033 97.7613 91.9917 98.8271L89.5058 101.211C89.6213 101.372 89.7468 101.523 89.8825 101.664C89.9987 101.786 90.115 101.907 90.2313 102.028C90.7352 102.554 91.33 102.992 92.0157 103.343C92.7014 103.694 93.4398 103.898 94.2308 103.954C95.0225 103.97 95.8475 103.819 96.7058 103.501C97.5446 103.162 98.3986 102.576 99.2676 101.742C99.8941 101.142 100.473 100.431 101.006 99.6105C101.539 98.7503 101.972 97.8881 102.307 97.0238L103.026 96.7418L104.073 97.8332L104.089 98.4573C103.973 99.3064 103.604 100.358 102.983 101.613C102.383 102.848 101.537 103.988 100.446 105.035C99.375 106.062 98.2301 106.83 97.0114 107.339C95.7935 107.809 94.5511 108.03 93.2843 108.003C92.0376 107.957 90.8061 107.664 89.5896 107.124C88.3934 106.564 87.272 105.738 86.2255 104.647C85.1597 103.536 84.3726 102.351 83.8644 101.092C83.3561 99.834 83.1051 98.5812 83.1115 97.3337C83.1381 96.0668 83.4014 94.8446 83.9014 93.6668C84.4217 92.4698 85.1769 91.3964 86.1672 90.4469C86.6927 89.943 87.3466 89.4518 88.129 88.9731C88.9316 88.4751 89.8298 88.1375 90.8237 87.9603C91.7982 87.7629 92.8768 87.7955 94.0595 88.0579C95.2228 88.3002 96.4574 88.9202 97.7633 89.918L98.6254 91.3025ZM88.3777 92.6914C87.3874 93.641 86.8798 94.7096 86.8548 95.8973C86.8307 97.0454 87.1157 98.0911 87.7098 99.0343L89.2256 97.5809C89.9329 96.9026 90.6205 96.2239 91.2883 95.5448C91.9367 94.8455 92.6145 94.1567 93.3219 93.4785C93.5846 93.2265 93.7088 92.9717 93.6944 92.714C93.6606 92.436 93.5662 92.2162 93.4112 92.0545C92.8298 91.4482 92.0426 91.2138 91.0496 91.3514C90.0565 91.489 89.1659 91.9357 88.3777 92.6914Z" fill="#B0554B"/>
<path d="M121.094 87.6955C120.942 87.8189 120.705 87.9932 120.383 88.2183C120.06 88.4435 119.717 88.6862 119.351 88.9466C119.003 89.2288 118.668 89.4824 118.346 89.7075C118.041 89.9544 117.813 90.1395 117.661 90.263L115.899 91.6913C115.747 91.8147 115.507 92.0087 115.181 92.2732C114.894 92.5418 114.577 92.8172 114.229 93.0994C113.92 93.3856 113.612 93.6719 113.303 93.9581C113.016 94.2268 112.797 94.4228 112.644 94.5462L112.506 94.4422L111.672 93.28L111.664 93.0702C111.99 92.8057 112.318 92.5215 112.649 92.2176C112.962 91.892 113.134 91.5716 113.167 91.2565C113.196 90.9808 113.146 90.6969 113.017 90.4048C112.889 90.1126 112.67 89.7314 112.361 89.2612C112.259 89.0913 112.146 88.9302 112.023 88.778C111.921 88.6081 111.8 88.4362 111.659 88.2622C111.539 88.0705 111.383 87.8551 111.189 87.6158C110.995 87.3766 110.757 87.083 110.475 86.735L100.185 74.044C99.8504 73.6308 99.5859 73.3045 99.3919 73.0653C99.1803 72.8043 98.9931 72.5956 98.8303 72.4392C98.6892 72.2652 98.5549 72.1218 98.4273 72.0089C98.3039 71.8567 98.1519 71.6915 97.9715 71.5134C97.7516 71.3312 97.5189 71.1774 97.2732 71.0522C97.0275 70.927 96.8455 70.8582 96.7274 70.8459C96.2807 70.7395 95.8765 70.7968 95.515 71.0178C95.1535 71.2388 94.7988 71.4904 94.4508 71.7725L94.2145 71.7478L93.3151 70.6386L93.3663 70.4349L95.0301 69.0859C95.5304 68.6803 96.0632 68.2483 96.6287 67.7898C97.1766 67.3096 97.6416 66.8605 98.0237 66.4426L99.0333 65.3537L99.7316 65.8149C99.7586 65.9371 99.8297 66.1138 99.9449 66.3448C100.064 66.5364 100.201 66.7498 100.356 66.9849C100.515 67.1807 100.671 67.3961 100.826 67.6313C100.984 67.827 101.117 67.9901 101.223 68.1206C101.364 68.2946 101.485 68.4666 101.587 68.6364C101.692 68.7669 101.825 68.9301 101.983 69.1258C102.124 69.2998 102.299 69.537 102.506 69.8374C102.735 70.1201 103.018 70.4681 103.353 70.8814L113.616 83.5397C113.968 83.9747 114.259 84.3336 114.488 84.6163C114.722 84.8597 114.918 85.0792 115.076 85.275C115.257 85.4531 115.418 85.6292 115.559 85.8032C115.704 85.9378 115.867 86.0941 116.047 86.2722C116.461 86.6937 116.787 87.0065 117.024 87.2104C117.266 87.375 117.535 87.4629 117.833 87.4741C118.148 87.507 118.475 87.4218 118.815 87.2184C119.159 86.9757 119.494 86.722 119.82 86.4575L120.115 86.4884L121.054 87.5121L121.094 87.6955Z" fill="#B0554B"/>
<path d="M137.879 75.8054C137.717 75.9164 137.46 76.1103 137.107 76.3872C136.753 76.6641 136.388 76.9489 136.012 77.2416C135.636 77.5343 135.271 77.8191 134.917 78.096C134.564 78.3728 134.307 78.5668 134.145 78.6778L133.981 78.587L133.18 77.2004L133.258 76.943C133.535 76.7526 133.85 76.519 134.204 76.2422C134.541 75.9422 134.766 75.6517 134.879 75.3705C134.968 75.1051 134.99 74.7669 134.946 74.356C134.901 73.945 134.707 73.4157 134.364 72.7682C134.149 72.4062 133.804 71.8791 133.328 71.1869C132.875 70.4789 132.181 69.4441 131.245 68.0828L126.248 60.8145C125.931 60.3531 125.574 59.8339 125.178 59.257C124.765 58.6571 124.338 58.0846 123.895 57.5395C123.421 56.9482 122.996 56.5776 122.621 56.4276C122.269 56.2617 121.953 56.173 121.674 56.1615C121.339 56.1197 121.048 56.1665 120.802 56.3021C120.578 56.4217 120.178 56.6799 119.601 57.0764L119.333 57.0569L118.325 55.8131L118.299 55.6271C118.461 55.516 118.676 55.3848 118.946 55.2334C119.239 55.0661 119.531 54.8989 119.824 54.7316C120.14 54.5485 120.456 54.3653 120.772 54.1822C121.087 53.9991 121.372 53.8203 121.626 53.6458L124.256 51.8375C124.51 51.6631 124.799 51.4648 125.122 51.2427C125.429 50.9976 125.744 50.764 126.067 50.5419C126.413 50.304 126.725 50.0898 127.002 49.8995C127.263 49.6861 127.474 49.5239 127.635 49.4128C128.881 48.5563 130.03 47.9536 131.081 47.6046C132.156 47.2398 133.128 47.0978 133.999 47.1786C134.87 47.2594 135.655 47.5356 136.353 48.0072C137.074 48.4629 137.704 49.083 138.243 49.8675C138.719 50.5597 139.024 51.2505 139.158 51.9398C139.315 52.6133 139.352 53.2846 139.268 53.9537C139.192 54.5839 139.026 55.2076 138.771 55.8247C138.5 56.4189 138.193 56.9863 137.851 57.5271C139.95 56.5264 141.851 56.1537 143.556 56.409C145.26 56.6643 146.699 57.6457 147.873 59.3532C148.666 60.5068 149.141 61.6418 149.296 62.758C149.436 63.851 149.308 64.9247 148.911 65.9788C148.522 66.994 147.895 67.9854 147.031 68.953C146.167 69.9206 145.112 70.8327 143.866 71.6892L137.879 75.8054ZM133.635 63.3305C133.968 63.8151 134.365 64.3919 134.825 65.0611C135.285 65.7302 135.729 66.3763 136.157 66.9993C136.609 67.6064 137.009 68.1638 137.358 68.6714C137.73 69.1632 137.991 69.4934 138.141 69.6621C138.615 70.2534 139.004 70.5469 139.307 70.5426C139.609 70.5383 139.934 70.4171 140.28 70.1792L141.007 69.6796C141.561 69.2989 142.129 68.8403 142.711 68.3039C143.301 67.7285 143.789 67.1041 144.176 66.4307C144.562 65.7573 144.785 65.0435 144.844 64.2893C144.904 63.535 144.671 62.7772 144.148 62.0158C143.704 61.3697 143.165 60.9075 142.532 60.6292C141.883 60.3278 141.175 60.1864 140.406 60.2051C139.637 60.2238 138.84 60.3983 138.014 60.7285C137.194 61.0198 136.37 61.4509 135.539 62.0219L133.635 63.3305ZM132.941 60.393C133.679 59.8854 134.236 59.4348 134.611 59.0411C135.009 58.6316 135.339 58.0483 135.6 57.2912C135.885 56.6192 135.983 55.8722 135.894 55.0502C135.789 54.2052 135.451 53.3673 134.88 52.5367C134.277 51.6599 133.471 51.2286 132.461 51.243C131.436 51.2343 130.289 51.6662 129.02 52.5386L127.289 53.7282C127.918 54.7911 128.395 55.5842 128.721 56.1077C129.031 56.6081 129.321 57.0544 129.59 57.4467L131.066 59.5926C131.43 60.1233 131.707 60.4766 131.896 60.6525C132.085 60.8285 132.33 60.8133 132.63 60.6071L132.941 60.393Z" fill="#B0554B"/>
<path d="M168.512 57.3205C168.461 57.0597 168.332 56.7151 168.122 56.2865C167.938 55.8443 167.786 55.4318 167.667 55.049L167.568 54.9598C167.482 55.4906 167.339 56.0367 167.141 56.5981C166.967 57.1457 166.724 57.6842 166.412 58.2136C166.099 58.7429 165.716 59.2319 165.262 59.6805C164.845 60.1398 164.344 60.5342 163.759 60.8639C162.88 61.3584 162.036 61.6569 161.226 61.7594C160.417 61.8619 159.668 61.8171 158.982 61.6252C158.296 61.4333 157.666 61.1132 157.092 60.665C156.543 60.203 156.089 59.6548 155.732 59.0205C155.197 58.0689 154.937 57.1226 154.953 56.1815C154.97 55.2404 155.196 54.358 155.632 53.5342C156.033 52.7622 156.598 52.0261 157.329 51.3257C158.045 50.601 158.772 49.951 159.508 49.3757C160.245 48.8004 160.936 48.3151 161.581 47.9198C162.212 47.5001 162.637 47.2285 162.857 47.1049L163.369 46.8164C162.919 46.0738 162.541 45.5157 162.234 45.1421C161.914 44.7441 161.61 44.4331 161.323 44.209C160.829 43.8446 160.27 43.7091 159.648 43.8023C159.037 43.8575 158.389 44.0773 157.706 44.4619C157.291 44.6955 156.86 44.9862 156.414 45.3341C155.978 45.6439 155.6 46.0009 155.282 46.4052C154.963 46.8095 154.734 47.2596 154.596 47.7553C154.468 48.213 154.517 48.6995 154.743 49.2149L154.658 49.4072L153.487 50.0665L151.221 46.8117L151.207 46.5302C151.271 46.3014 151.462 45.9849 151.781 45.5806C152.099 45.1763 152.51 44.7361 153.014 44.26C153.503 43.7596 154.062 43.2682 154.69 42.786C155.329 42.2657 156.002 41.8063 156.71 41.408C157.661 40.8723 158.621 40.4929 159.587 40.2699C160.541 40.0224 161.441 39.9657 162.287 40.0996C163.158 40.2198 163.964 40.5375 164.703 41.0528C165.43 41.5436 166.054 42.2526 166.576 43.1798C167.139 44.1802 167.607 45.041 167.981 45.7623C168.38 46.4699 168.738 47.1355 169.057 47.7593C169.376 48.383 169.689 48.9945 169.994 49.5938C170.31 50.155 170.667 50.7894 171.065 51.4969C171.43 52.0306 171.718 52.3989 171.928 52.6017C172.139 52.8045 172.371 52.931 172.624 52.9812C172.929 53.0665 173.29 53.0237 173.708 52.8527C174.137 52.6436 174.522 52.4429 174.863 52.2506L175.056 52.3352L175.829 53.5383L175.875 53.7053C175.433 53.89 174.937 54.1213 174.386 54.3991C173.836 54.6769 173.328 54.9463 172.865 55.2072C172.182 55.5919 171.499 55.9765 170.815 56.3611C170.146 56.7701 169.52 57.1707 168.937 57.5629L168.512 57.3205ZM166.287 53.3679C166.291 53.2047 166.282 53.0171 166.259 52.8051C166.26 52.5793 166.205 52.3376 166.092 52.0799L164.523 48.8659L164.194 49.0514C163.437 49.4772 162.721 49.945 162.044 50.4546C161.367 50.9643 160.811 51.5182 160.376 52.1162C159.942 52.7143 159.679 53.3603 159.588 54.0544C159.497 54.7484 159.671 55.4858 160.11 56.2666C160.481 56.9253 160.935 57.3606 161.472 57.5725C162.033 57.7705 162.595 57.7116 163.156 57.3957C163.571 57.1622 163.958 56.8799 164.318 56.5487C164.688 56.1795 165.008 55.8065 165.278 55.4296C165.548 55.0528 165.775 54.6844 165.957 54.3243C166.127 53.9399 166.236 53.6211 166.287 53.3679Z" fill="#B0554B"/>
<path d="M189.675 32.7319L189.469 32.6889C189.197 32.1056 188.799 31.7195 188.278 31.5306C187.771 31.3044 187.228 31.2026 186.652 31.2251C186.075 31.2477 185.49 31.3514 184.896 31.5364C184.328 31.7095 183.841 31.891 183.435 32.0808C182.522 32.508 181.806 33.0593 181.288 33.7347C180.769 34.4101 180.431 35.1404 180.272 35.9254C180.114 36.7104 180.099 37.5368 180.227 38.4044C180.38 39.2602 180.646 40.0938 181.026 40.9054C181.429 41.7677 181.929 42.5385 182.525 43.218C183.146 43.8855 183.84 44.4109 184.607 44.7941C185.374 45.1774 186.214 45.3872 187.127 45.4235C188.054 45.4226 189.025 45.1848 190.039 44.7102C190.902 44.3068 191.773 43.7908 192.654 43.1624C193.535 42.534 194.26 41.8389 194.831 41.0772L195.905 41.6876L195.833 43.0198C195.649 43.3532 195.382 43.7408 195.032 44.1826C194.696 44.5872 194.296 45.0215 193.833 45.4854C193.359 45.924 192.821 46.361 192.221 46.7963C191.646 47.2197 191.042 47.5798 190.408 47.8764C189.165 48.4578 187.872 48.7999 186.529 48.9027C185.2 48.9683 183.92 48.8097 182.69 48.4269C181.473 48.0069 180.35 47.3576 179.321 46.479C178.28 45.575 177.439 44.4383 176.798 43.0688C176.145 41.6739 175.806 40.2872 175.779 38.9086C175.752 37.53 175.993 36.2273 176.501 35.0004C177.009 33.7735 177.739 32.659 178.692 31.6566C179.671 30.6424 180.832 29.8209 182.176 29.192C182.785 28.9073 183.417 28.6732 184.074 28.4899C184.743 28.2693 185.387 28.0919 186.004 27.9577C186.647 27.8116 187.238 27.7205 187.777 27.6845C188.305 27.6231 188.744 27.6032 189.094 27.6248L189.368 27.9138L190.854 32.1801L189.675 32.7319Z" fill="#B0554B"/>
<path d="M194.302 13.1101L194.4 12.8938L196.367 12.1565C196.97 11.9304 197.612 11.6896 198.294 11.434C198.966 11.1522 199.549 10.8736 200.044 10.5984L201.386 9.87089L201.902 10.5296C201.889 10.6542 201.91 10.8704 201.966 11.1785C202.038 11.4505 202.12 11.7487 202.212 12.0732C202.33 12.3878 202.43 12.6942 202.511 12.9924C202.62 13.2808 202.703 13.5037 202.762 13.661C202.919 14.0805 203.054 14.4786 203.165 14.8555C203.303 15.2226 203.452 15.6601 203.612 16.168C203.799 16.6662 204.012 17.2741 204.251 17.9918C204.517 18.6997 204.856 19.6042 205.269 20.7053L208.085 28.2167L210.794 22.7603C210.974 22.3638 211.015 22.0344 210.917 21.7723C210.76 21.3528 210.039 21.2643 208.754 21.5067L208.538 21.4084L208.066 20.15L208.164 19.9337C208.682 19.7993 209.2 19.665 209.718 19.5306C210.235 19.3963 210.756 19.2308 211.281 19.0342L213.68 18.1348C214.125 17.9676 214.561 17.7743 214.987 17.5547C215.413 17.3352 215.839 17.1156 216.265 16.8961L216.442 17.0092L216.944 18.3463L216.821 18.6166C216.631 18.7477 216.38 18.9165 216.069 19.1229C215.784 19.3195 215.539 19.5456 215.336 19.8013C215.032 20.1847 214.728 20.6123 214.427 21.0842C214.152 21.5463 213.873 22.0395 213.591 22.5638C213.335 23.0783 213.072 23.6108 212.8 24.1614C212.544 24.6759 212.305 25.1544 212.082 25.5968L211.512 26.7077L218.983 31.083C219.599 31.4501 220.165 31.7614 220.679 32.0171C221.184 32.2465 221.682 32.4186 222.174 32.5333C222.665 32.648 223.163 32.7005 223.668 32.6906C224.173 32.6808 224.731 32.576 225.344 32.3761L225.521 32.4892L226.101 33.7968L226.081 33.9836C225.446 34.2818 224.735 34.5783 223.948 34.8732C223.198 35.1845 222.429 35.4876 221.642 35.7826C221.066 35.9988 220.464 36.0299 219.838 35.8759C219.203 35.6956 218.618 35.4514 218.084 35.1434L208.941 29.7799L208.793 30.1043C209.127 30.9957 209.484 31.9084 209.865 32.8424C210.235 33.7502 210.564 34.5089 210.853 35.1185C211.085 35.6592 211.295 36.059 211.482 36.3179C211.659 36.5506 211.886 36.7194 212.165 36.8243C212.453 36.9554 212.791 36.9783 213.178 36.8931C213.581 36.7719 213.979 36.6376 214.372 36.4901L214.642 36.613L215.208 37.8813L215.188 38.0681C214.978 38.1467 214.685 38.2418 214.308 38.3532C213.931 38.4646 213.541 38.5809 213.138 38.7021C212.745 38.8496 212.347 38.9839 211.944 39.1052C211.577 39.2428 211.301 39.346 211.118 39.4148L208.994 40.2111C208.811 40.2799 208.522 40.388 208.129 40.5355C207.772 40.6993 207.383 40.8599 206.964 41.0172C206.58 41.1909 206.197 41.3645 205.814 41.5382C205.456 41.702 205.186 41.8184 205.002 41.8872L204.904 41.7446L204.481 40.378L204.54 40.1765C204.96 40.0192 205.361 39.8537 205.745 39.6801C206.145 39.4703 206.41 39.2213 206.541 38.9329C206.682 38.6707 206.725 38.3856 206.669 38.0776C206.64 37.7597 206.553 37.3287 206.409 36.7847C206.327 36.4865 206.232 36.1932 206.124 35.9048C206.032 35.5803 205.912 35.2215 205.765 34.8282C205.643 34.4251 205.48 33.9483 205.273 33.3977C205.067 32.8472 204.816 32.1786 204.521 31.3921L201.277 22.7403C200.874 21.6653 200.535 20.7608 200.26 20.0267C199.975 19.2664 199.716 18.6159 199.483 18.0752C199.277 17.5246 199.082 17.0445 198.898 16.6348C198.741 16.2153 198.571 15.8008 198.387 15.3911C198.253 15.1126 198.081 14.893 197.871 14.7324C197.678 14.5358 197.522 14.3998 197.404 14.3244C197.034 14.1343 196.642 14.0867 196.229 14.1818C195.833 14.2407 195.425 14.3489 195.005 14.5062L194.789 14.4078L194.302 13.1101Z" fill="#B0554B"/>
</svg>
